<?xml version="1.0" encoding="UTF-8" standalone="no"?>
<!-- Created with Inkscape (http://www.inkscape.org/) -->

<svg
   version="1.1"
   id="svg1"
   width="569.23602"
   height="259.61469"
   viewBox="0 0 569.23602 259.61469"
   sodipodi:docname="output-figure4.pdf"
   xmlns:inkscape="http://www.inkscape.org/namespaces/inkscape"
   xmlns:sodipodi="http://sodipodi.sourceforge.net/DTD/sodipodi-0.dtd"
   xmlns="http://www.w3.org/2000/svg"
   xmlns:svg="http://www.w3.org/2000/svg">
  <defs
     id="defs1">
    <clipPath
       clipPathUnits="userSpaceOnUse"
       id="clipPath20">
      <path
         d="M -22.24974,0 H 244.73373 V 139.42189 H -22.24974 Z"
         id="path20" />
    </clipPath>
    <clipPath
       clipPathUnits="userSpaceOnUse"
       id="clipPath22">
      <path
         d="M -22.24974,0 H 244.73373 V 139.42189 H -22.24974 Z"
         id="path22" />
    </clipPath>
    <clipPath
       clipPathUnits="userSpaceOnUse"
       id="clipPath24">
      <path
         d="M -22.24974,0 H 244.73373 V 139.42189 H -22.24974 Z"
         transform="rotate(-90,-65.789,60.807002)"
         id="path24" />
    </clipPath>
    <clipPath
       clipPathUnits="userSpaceOnUse"
       id="clipPath26">
      <path
         d="M -22.24974,0 H 244.73373 V 139.42189 H -22.24974 Z"
         id="path26" />
    </clipPath>
    <clipPath
       clipPathUnits="userSpaceOnUse"
       id="clipPath28">
      <path
         d="M -22.24974,0 H 244.73373 V 139.42189 H -22.24974 Z"
         transform="rotate(90,44.2105,49.192501)"
         id="path28" />
    </clipPath>
    <clipPath
       clipPathUnits="userSpaceOnUse"
       id="clipPath30">
      <path
         d="M -22.24974,0 H 244.73373 V 139.42189 H -22.24974 Z"
         id="path30" />
    </clipPath>
    <clipPath
       clipPathUnits="userSpaceOnUse"
       id="clipPath32">
      <path
         d="M -22.24974,0 H 244.73373 V 139.42189 H -22.24974 Z"
         transform="rotate(-90,-37.978998,88.617003)"
         id="path32" />
    </clipPath>
    <clipPath
       clipPathUnits="userSpaceOnUse"
       id="clipPath34">
      <path
         d="M -22.24974,0 H 244.73373 V 139.42189 H -22.24974 Z"
         id="path34" />
    </clipPath>
    <clipPath
       clipPathUnits="userSpaceOnUse"
       id="clipPath36">
      <path
         d="M -22.24974,0 H 244.73373 V 139.42189 H -22.24974 Z"
         transform="rotate(90,72.021001,21.382001)"
         id="path36" />
    </clipPath>
    <clipPath
       clipPathUnits="userSpaceOnUse"
       id="clipPath38">
      <path
         d="M -22.24974,0 H 244.73373 V 139.42189 H -22.24974 Z"
         id="path38" />
    </clipPath>
    <clipPath
       clipPathUnits="userSpaceOnUse"
       id="clipPath40">
      <path
         d="M -22.24974,0 H 244.73373 V 139.42189 H -22.24974 Z"
         transform="rotate(-90,-10.168499,116.4275)"
         id="path40" />
    </clipPath>
    <clipPath
       clipPathUnits="userSpaceOnUse"
       id="clipPath42">
      <path
         d="M -22.24974,0 H 244.73373 V 139.42189 H -22.24974 Z"
         id="path42" />
    </clipPath>
    <clipPath
       clipPathUnits="userSpaceOnUse"
       id="clipPath44">
      <path
         d="M -22.24974,0 H 244.73373 V 139.42189 H -22.24974 Z"
         transform="rotate(90,99.8315,-6.4284975)"
         id="path44" />
    </clipPath>
    <clipPath
       clipPathUnits="userSpaceOnUse"
       id="clipPath46">
      <path
         d="M -22.24974,0 H 244.73373 V 139.42189 H -22.24974 Z"
         id="path46" />
    </clipPath>
    <clipPath
       clipPathUnits="userSpaceOnUse"
       id="clipPath48">
      <path
         d="M -22.24974,0 H 244.73373 V 139.42189 H -22.24974 Z"
         transform="rotate(-90,17.641502,144.2375)"
         id="path48" />
    </clipPath>
    <clipPath
       clipPathUnits="userSpaceOnUse"
       id="clipPath50">
      <path
         d="M -22.24974,0 H 244.73373 V 139.42189 H -22.24974 Z"
         id="path50" />
    </clipPath>
    <clipPath
       clipPathUnits="userSpaceOnUse"
       id="clipPath52">
      <path
         d="M -22.24974,0 H 244.73373 V 139.42189 H -22.24974 Z"
         transform="rotate(90,127.6415,-34.238497)"
         id="path52" />
    </clipPath>
    <clipPath
       clipPathUnits="userSpaceOnUse"
       id="clipPath54">
      <path
         d="M -22.24974,0 H 244.73373 V 139.42189 H -22.24974 Z"
         id="path54" />
    </clipPath>
    <clipPath
       clipPathUnits="userSpaceOnUse"
       id="clipPath56">
      <path
         d="M -22.24974,0 H 244.73373 V 139.42189 H -22.24974 Z"
         transform="rotate(-90,45.451503,172.0475)"
         id="path56" />
    </clipPath>
    <clipPath
       clipPathUnits="userSpaceOnUse"
       id="clipPath58">
      <path
         d="M -22.24974,0 H 244.73373 V 139.42189 H -22.24974 Z"
         id="path58" />
    </clipPath>
    <clipPath
       clipPathUnits="userSpaceOnUse"
       id="clipPath60">
      <path
         d="M -22.24974,0 H 244.73373 V 139.42189 H -22.24974 Z"
         transform="rotate(90,155.4515,-62.048497)"
         id="path60" />
    </clipPath>
    <clipPath
       clipPathUnits="userSpaceOnUse"
       id="clipPath62">
      <path
         d="M -22.24974,0 H 244.73373 V 139.42189 H -22.24974 Z"
         id="path62" />
    </clipPath>
    <clipPath
       clipPathUnits="userSpaceOnUse"
       id="clipPath64">
      <path
         d="M -22.24974,0 H 244.73373 V 139.42189 H -22.24974 Z"
         id="path64" />
    </clipPath>
    <clipPath
       clipPathUnits="userSpaceOnUse"
       id="clipPath66">
      <path
         d="M -22.24974,0 H 244.73373 V 139.42189 H -22.24974 Z"
         transform="rotate(-90,-13.269499,18.251499)"
         id="path66" />
    </clipPath>
    <clipPath
       clipPathUnits="userSpaceOnUse"
       id="clipPath68">
      <path
         d="M -22.24974,0 H 244.73373 V 139.42189 H -22.24974 Z"
         id="path68" />
    </clipPath>
    <clipPath
       clipPathUnits="userSpaceOnUse"
       id="clipPath70">
      <path
         d="M -22.24974,0 H 244.73373 V 139.42189 H -22.24974 Z"
         transform="rotate(90,14.710001,9.7290014)"
         id="path70" />
    </clipPath>
    <clipPath
       clipPathUnits="userSpaceOnUse"
       id="clipPath72">
      <path
         d="M -22.24974,0 H 244.73373 V 139.42189 H -22.24974 Z"
         id="path72" />
    </clipPath>
    <clipPath
       clipPathUnits="userSpaceOnUse"
       id="clipPath74">
      <path
         d="M -22.24974,0 H 244.73373 V 139.42189 H -22.24974 Z"
         transform="rotate(-90,10.930002,49.671999)"
         id="path74" />
    </clipPath>
    <clipPath
       clipPathUnits="userSpaceOnUse"
       id="clipPath76">
      <path
         d="M -22.24974,0 H 244.73373 V 139.42189 H -22.24974 Z"
         id="path76" />
    </clipPath>
    <clipPath
       clipPathUnits="userSpaceOnUse"
       id="clipPath78">
      <path
         d="M -22.24974,0 H 244.73373 V 139.42189 H -22.24974 Z"
         transform="rotate(90,40.135,-20.467001)"
         id="path78" />
    </clipPath>
    <clipPath
       clipPathUnits="userSpaceOnUse"
       id="clipPath80">
      <path
         d="M -22.24974,0 H 244.73373 V 139.42189 H -22.24974 Z"
         id="path80" />
    </clipPath>
    <clipPath
       clipPathUnits="userSpaceOnUse"
       id="clipPath82">
      <path
         d="M -22.24974,0 H 244.73373 V 139.42189 H -22.24974 Z"
         transform="rotate(-90,39.003504,77.2175)"
         id="path82" />
    </clipPath>
    <clipPath
       clipPathUnits="userSpaceOnUse"
       id="clipPath84">
      <path
         d="M -22.24974,0 H 244.73373 V 139.42189 H -22.24974 Z"
         id="path84" />
    </clipPath>
    <clipPath
       clipPathUnits="userSpaceOnUse"
       id="clipPath86">
      <path
         d="M -22.24974,0 H 244.73373 V 139.42189 H -22.24974 Z"
         transform="rotate(90,68.047004,-48.174)"
         id="path86" />
    </clipPath>
    <clipPath
       clipPathUnits="userSpaceOnUse"
       id="clipPath88">
      <path
         d="M -22.24974,0 H 244.73373 V 139.42189 H -22.24974 Z"
         id="path88" />
    </clipPath>
    <clipPath
       clipPathUnits="userSpaceOnUse"
       id="clipPath90">
      <path
         d="M -22.24974,0 H 244.73373 V 139.42189 H -22.24974 Z"
         transform="rotate(-90,66.889,104.954)"
         id="path90" />
    </clipPath>
    <clipPath
       clipPathUnits="userSpaceOnUse"
       id="clipPath92">
      <path
         d="M -22.24974,0 H 244.73373 V 139.42189 H -22.24974 Z"
         id="path92" />
    </clipPath>
    <clipPath
       clipPathUnits="userSpaceOnUse"
       id="clipPath94">
      <path
         d="M -22.24974,0 H 244.73373 V 139.42189 H -22.24974 Z"
         transform="rotate(90,95.920503,-75.921499)"
         id="path94" />
    </clipPath>
    <clipPath
       clipPathUnits="userSpaceOnUse"
       id="clipPath96">
      <path
         d="M -22.24974,0 H 244.73373 V 139.42189 H -22.24974 Z"
         id="path96" />
    </clipPath>
    <clipPath
       clipPathUnits="userSpaceOnUse"
       id="clipPath98">
      <path
         d="M -22.24974,0 H 244.73373 V 139.42189 H -22.24974 Z"
         transform="rotate(-90,94.699,132.764)"
         id="path98" />
    </clipPath>
    <clipPath
       clipPathUnits="userSpaceOnUse"
       id="clipPath100">
      <path
         d="M -22.24974,0 H 244.73373 V 139.42189 H -22.24974 Z"
         id="path100" />
    </clipPath>
    <clipPath
       clipPathUnits="userSpaceOnUse"
       id="clipPath102">
      <path
         d="M -22.24974,0 H 244.73373 V 139.42189 H -22.24974 Z"
         transform="rotate(90,123.7305,-103.7315)"
         id="path102" />
    </clipPath>
  </defs>
  <sodipodi:namedview
     id="namedview1"
     pagecolor="#ffffff"
     bordercolor="#000000"
     borderopacity="0.25"
     inkscape:showpageshadow="2"
     inkscape:pageopacity="0.0"
     inkscape:pagecheckerboard="0"
     inkscape:deskcolor="#d1d1d1"
     showgrid="false" />
  <g
     id="g1"
     inkscape:groupmode="layer"
     inkscape:label="10">
    <path
       id="path1"
       d="M 0,-4.2518 V 0 M 55.62099,-4.2518 V 0 m 55.621,-4.2518 V 0 m 55.621,-4.2518 V 0 M 222.484,-4.2518 V 0 M 0,143.6737 v -4.25181 m 55.62099,4.25181 v -4.25181 m 55.621,4.25181 v -4.25181 m 55.621,4.25181 v -4.25181 m 55.62101,4.25181 v -4.25181"
       style="fill:none;stroke:#808080;stroke-width:0.19925;stroke-linecap:butt;stroke-linejoin:miter;stroke-miterlimit:10;stroke-dasharray:none;stroke-opacity:1"
       transform="matrix(1.3333333,0,0,-1.3333333,86.889333,196.23067)" />
    <path
       id="path2"
       d="m -22.24974,0 h 4.25207 m -4.25207,46.47395 h 4.25207 m -4.25207,46.47397 h 4.25207 m -4.25207,46.47397 h 4.25207 M 244.73373,0 h -4.25207 m 4.25207,46.47395 h -4.25207 m 4.25207,46.47397 h -4.25207 m 4.25207,46.47397 h -4.25207"
       style="fill:none;stroke:#808080;stroke-width:0.19925;stroke-linecap:butt;stroke-linejoin:miter;stroke-miterlimit:10;stroke-dasharray:none;stroke-opacity:1"
       transform="matrix(1.3333333,0,0,-1.3333333,86.889333,196.23067)" />
    <path
       id="path3"
       d="M -22.24974,0 V 139.42189 H 244.73373 V 0 Z"
       style="fill:none;stroke:#000000;stroke-width:0.3985;stroke-linecap:butt;stroke-linejoin:miter;stroke-miterlimit:10;stroke-dasharray:none;stroke-opacity:1"
       transform="matrix(1.3333333,0,0,-1.3333333,86.889333,196.23067)" />
    <path
       id="path4"
       d="m 5.3550156,-3.8191484 c 0,-0.9960938 -0.058594,-1.96875 -0.4921875,-2.8710938 -0.4921875,-0.9960937 -1.3476562,-1.2539062 -1.9335937,-1.2539062 -0.6914063,0 -1.546875,0.3398437 -1.98046877,1.3359375 -0.33984375,0.75 -0.45703125,1.4882812 -0.45703125,2.7890625 0,1.1601562 0.0820313,2.0273437 0.51562502,2.87109371 0.4570312,0.9140625 1.2890625,1.1953125 1.9101562,1.1953125 1.0429688,0 1.640625,-0.62109375 1.9804688,-1.31250001 0.4335937,-0.890625 0.4570312,-2.0625 0.4570312,-2.7539062 z m -2.4375,3.83203121 c -0.3867187,0 -1.1601562,-0.2109375 -1.3828125,-1.52343751 -0.140625,-0.7148437 -0.140625,-1.6171875 -0.140625,-2.4609375 0,-0.9726562 0,-1.8632812 0.1992188,-2.5664062 0.1992187,-0.796875 0.8085937,-1.171875 1.3242187,-1.171875 0.4570313,0 1.1484375,0.28125 1.3710938,1.3007812 0.1523437,0.6796875 0.1523437,1.6289063 0.1523437,2.4375 0,0.8085938 0,1.7109375 -0.1289062,2.4375 -0.2226563,1.32421876 -0.9726563,1.54687501 -1.3945313,1.54687501 z m 5.1386719,-0.59765625 c 0,-0.328125 -0.28125,-0.57421876 -0.5742187,-0.57421876 -0.3515625,0 -0.5859375,0.28125001 -0.5859375,0.57421876 0,0.36328125 0.2929687,0.5859375 0.5742187,0.5859375 0.3164063,0 0.5859375,-0.24609375 0.5859375,-0.5859375 z M 12.550328,-7.6628984 c 0,-0.2695313 0,-0.28125 -0.246094,-0.28125 -0.28125,0.3164062 -0.878906,0.7617187 -2.109375,0.7617187 v 0.3515625 c 0.269532,0 0.867188,0 1.523438,-0.3164062 v 6.22265621 c 0,0.43359375 -0.03516,0.57421875 -1.078125,0.57421875 h -0.375 v 0.3515625 c 0.316406,-0.0234375 1.476562,-0.0234375 1.875,-0.0234375 0.398437,0 1.546875,0 1.863281,0.0234375 v -0.3515625 h -0.363281 c -1.054688,0 -1.089844,-0.140625 -1.089844,-0.57421875 z m 11.501953,5.9296875 c 0,-1.3710938 -0.679687,-2.4140625 -1.523437,-2.4140625 -0.878906,0 -1.722656,0.9960937 -1.722656,2.4023437 0,1.46484376 0.855468,2.41406251 1.722656,2.41406251 0.855469,0 1.523437,-1.078125 1.523437,-2.40234371 z m -1.511718,2.16796871 c -0.175782,0 -1.042969,-0.0820313 -1.042969,-2.16796871 0,-2.0976563 0.855469,-2.1796875 1.042969,-2.1796875 0.65625,0 1.253906,0.9375 1.253906,2.1679687 0,1.26562501 -0.609375,2.17968751 -1.253906,2.17968751 z m 0.433593,-8.96484371 c 0.08203,-0.1054688 0.105469,-0.1523438 0.105469,-0.2109375 0,-0.1523438 -0.128906,-0.2226563 -0.222656,-0.2226563 -0.117188,0 -0.152344,0.058594 -0.246094,0.1757813 -0.761719,1.03125 -1.78125,1.125 -2.238281,1.125 -0.222656,0 -1.253906,0 -2.226563,-0.9257813 -0.246093,-0.2578125 -0.515625,-0.375 -0.820312,-0.375 -0.867188,0 -1.722656,0.9960938 -1.722656,2.4023438 0,1.453125 0.867187,2.4140625 1.722656,2.4140625 0.855469,0 1.535156,-1.078125 1.535156,-2.4023438 0,-0.3515625 -0.03516,-0.7851562 -0.269531,-1.3828125 0.773437,0.4453125 1.453125,0.515625 1.792969,0.515625 0.328125,0 0.984375,-0.070312 1.617187,-0.4570312 l 0.01172,0.011719 -5.332031,8.09765626 c -0.07031,0.1171875 -0.09375,0.15234375 -0.09375,0.2109375 0,0.12890625 0.105468,0.22265625 0.222656,0.22265625 0.105469,0 0.164062,-0.0820313 0.222656,-0.1640625 z m -5.636718,4.1484375 c -0.164063,0 -1.042969,-0.082031 -1.042969,-2.1679688 0,-2.0976562 0.867187,-2.1796875 1.042969,-2.1796875 0.65625,0 1.253906,0.9375 1.253906,2.1679688 0,1.265625 -0.609375,2.1796875 -1.253906,2.1796875 z m 0,0"
       style="fill:#000000;fill-opacity:1;fill-rule:nonzero;stroke:none"
       aria-label="0.1%"
       transform="matrix(1.3333333,0,0,1.3333333,70.414667,219.32267)" />
    <path
       id="path5"
       d="m 5.3551328,-3.8191484 c 0,-0.9960938 -0.058594,-1.96875 -0.4921875,-2.8710938 -0.4921875,-0.9960937 -1.3476562,-1.2539062 -1.9335937,-1.2539062 -0.6914063,0 -1.546875,0.3398437 -1.98046879,1.3359375 -0.33984375,0.75 -0.45703125,1.4882812 -0.45703125,2.7890625 0,1.1601562 0.0820312,2.0273437 0.51562504,2.87109371 0.4570312,0.9140625 1.2890625,1.1953125 1.9101562,1.1953125 1.0429688,0 1.640625,-0.62109375 1.9804688,-1.31250001 0.4335937,-0.890625 0.4570312,-2.0625 0.4570312,-2.7539062 z m -2.4375,3.83203121 c -0.3867187,0 -1.1601562,-0.2109375 -1.3828125,-1.52343751 -0.140625,-0.7148437 -0.140625,-1.6171875 -0.140625,-2.4609375 0,-0.9726562 0,-1.8632812 0.1992188,-2.5664062 0.1992187,-0.796875 0.8085937,-1.171875 1.3242187,-1.171875 0.4570313,0 1.1484375,0.28125 1.3710938,1.3007812 0.1523437,0.6796875 0.1523437,1.6289063 0.1523437,2.4375 0,0.8085938 0,1.7109375 -0.1289062,2.4375 -0.2226563,1.32421876 -0.9726563,1.54687501 -1.3945313,1.54687501 z m 5.1386719,-0.59765625 c 0,-0.328125 -0.28125,-0.57421876 -0.5742188,-0.57421876 -0.3515625,0 -0.5859375,0.28125001 -0.5859375,0.57421876 0,0.36328125 0.2929688,0.5859375 0.5742188,0.5859375 0.3164062,0 0.5859375,-0.24609375 0.5859375,-0.5859375 z M 10.640289,-6.8425859 c 0.503906,0.1640625 0.925781,0.1757812 1.054688,0.1757812 1.359375,0 2.214843,-0.9960937 2.214843,-1.1601562 0,-0.046875 -0.02344,-0.1054688 -0.09375,-0.1054688 -0.02344,0 -0.04687,0 -0.152343,0.046875 -0.667969,0.28125 -1.242188,0.3164063 -1.558594,0.3164063 -0.785156,0 -1.347656,-0.234375 -1.582031,-0.328125 -0.08203,-0.035156 -0.105469,-0.035156 -0.117188,-0.035156 -0.09375,0 -0.09375,0.070312 -0.09375,0.2578125 v 3.5507813 c 0,0.2109375 0,0.2929687 0.140625,0.2929687 0.05859,0 0.07031,-0.011719 0.199219,-0.1640625 0.328125,-0.4921875 0.890625,-0.7734375 1.488281,-0.7734375 0.632813,0 0.949219,0.5859375 1.042969,0.7851563 0.199219,0.46875 0.210937,1.0546875 0.210937,1.5117187 0,0.4570313 0,1.1367188 -0.328125,1.67578126 -0.269531,0.421875 -0.738281,0.7265625 -1.253906,0.7265625 -0.796875,0 -1.570312,-0.5390625 -1.78125,-1.40624996 0.05859,0.023437 0.128906,0.035156 0.1875,0.035156 0.199219,0 0.527344,-0.1289062 0.527344,-0.5273437 0,-0.3398438 -0.234375,-0.5273438 -0.527344,-0.5273438 -0.210937,0 -0.5273437,0.1054688 -0.5273437,0.5742188 0,1.00781246 0.8085937,2.16796871 2.1445317,2.16796871 1.347656,0 2.53125,-1.125 2.53125,-2.64843751 0,-1.4179687 -0.960938,-2.6015625 -2.214844,-2.6015625 -0.679688,0 -1.207031,0.2929688 -1.511719,0.6328125 z m 13.412109,5.109375 c 0,-1.3710938 -0.679687,-2.4140625 -1.523437,-2.4140625 -0.878906,0 -1.722656,0.9960937 -1.722656,2.4023437 0,1.46484376 0.855468,2.41406251 1.722656,2.41406251 0.855469,0 1.523437,-1.078125 1.523437,-2.40234371 z M 22.54068,0.43475781 c -0.175782,0 -1.042969,-0.0820313 -1.042969,-2.16796871 0,-2.0976563 0.855469,-2.1796875 1.042969,-2.1796875 0.65625,0 1.253906,0.9375 1.253906,2.1679687 0,1.26562501 -0.609375,2.17968751 -1.253906,2.17968751 z m 0.433593,-8.96484371 c 0.08203,-0.1054688 0.105469,-0.1523438 0.105469,-0.2109375 0,-0.1523438 -0.128906,-0.2226563 -0.222656,-0.2226563 -0.117188,0 -0.152344,0.058594 -0.246094,0.1757813 -0.761719,1.03125 -1.78125,1.125 -2.238281,1.125 -0.222656,0 -1.253906,0 -2.226563,-0.9257813 -0.246093,-0.2578125 -0.515625,-0.375 -0.820312,-0.375 -0.867188,0 -1.722656,0.9960938 -1.722656,2.4023438 0,1.453125 0.867187,2.4140625 1.722656,2.4140625 0.855469,0 1.535156,-1.078125 1.535156,-2.4023438 0,-0.3515625 -0.03516,-0.7851562 -0.269531,-1.3828125 0.773437,0.4453125 1.453125,0.515625 1.792969,0.515625 0.328125,0 0.984375,-0.070312 1.617187,-0.4570312 l 0.01172,0.011719 -5.332031,8.09765626 c -0.07031,0.1171875 -0.09375,0.15234375 -0.09375,0.2109375 0,0.12890625 0.105468,0.22265625 0.222656,0.22265625 0.105469,0 0.164062,-0.0820313 0.222656,-0.1640625 z m -5.636718,4.1484375 c -0.164063,0 -1.042969,-0.082031 -1.042969,-2.1679688 0,-2.0976562 0.867187,-2.1796875 1.042969,-2.1796875 0.65625,0 1.253906,0.9375 1.253906,2.1679688 0,1.265625 -0.609375,2.1796875 -1.253906,2.1796875 z m 0,0"
       style="fill:#000000;fill-opacity:1;fill-rule:nonzero;stroke:none"
       aria-label="0.5%"
       transform="matrix(1.3333333,0,0,1.3333333,144.57467,219.32267)" />
    <path
       id="path6"
       d="m 3.4450938,-7.6628984 c 0,-0.2695313 0,-0.28125 -0.2460938,-0.28125 -0.28125,0.3164062 -0.8789062,0.7617187 -2.109375,0.7617187 v 0.3515625 c 0.2695313,0 0.8671875,0 1.5234375,-0.3164062 v 6.22265621 c 0,0.43359375 -0.035156,0.57421875 -1.078125,0.57421875 h -0.375 v 0.3515625 c 0.3164063,-0.0234375 1.4765625,-0.0234375 1.875,-0.0234375 0.3984375,0 1.546875,0 1.8632813,0.0234375 v -0.3515625 H 4.5349375 c -1.0546875,0 -1.0898437,-0.140625 -1.0898437,-0.57421875 z m 4.6113281,7.07812496 c 0,-0.328125 -0.28125,-0.57421876 -0.5742188,-0.57421876 -0.3515625,0 -0.5859375,0.28125001 -0.5859375,0.57421876 0,0.36328125 0.2929688,0.5859375 0.5742188,0.5859375 0.3164062,0 0.5859375,-0.24609375 0.5859375,-0.5859375 z M 14.460719,-3.8191484 c 0,-0.9960938 -0.05859,-1.96875 -0.492188,-2.8710938 -0.492187,-0.9960937 -1.347656,-1.2539062 -1.933593,-1.2539062 -0.691407,0 -1.546875,0.3398437 -1.980469,1.3359375 -0.339844,0.75 -0.4570315,1.4882812 -0.4570315,2.7890625 0,1.1601562 0.082031,2.0273437 0.5156255,2.87109371 0.457031,0.9140625 1.289062,1.1953125 1.910156,1.1953125 1.042969,0 1.640625,-0.62109375 1.980469,-1.31250001 0.433593,-0.890625 0.457031,-2.0625 0.457031,-2.7539062 z m -2.4375,3.83203121 c -0.386719,0 -1.160156,-0.2109375 -1.382813,-1.52343751 -0.140625,-0.7148437 -0.140625,-1.6171875 -0.140625,-2.4609375 0,-0.9726562 0,-1.8632812 0.199219,-2.5664062 0.199219,-0.796875 0.808594,-1.171875 1.324219,-1.171875 0.457031,0 1.148437,0.28125 1.371094,1.3007812 0.152343,0.6796875 0.152343,1.6289063 0.152343,2.4375 0,0.8085938 0,1.7109375 -0.128906,2.4375 -0.222656,1.32421876 -0.972656,1.54687501 -1.394531,1.54687501 z M 24.052516,-1.7332109 c 0,-1.3710938 -0.679688,-2.4140625 -1.523438,-2.4140625 -0.878906,0 -1.722656,0.9960937 -1.722656,2.4023437 0,1.46484376 0.855469,2.41406251 1.722656,2.41406251 0.855469,0 1.523438,-1.078125 1.523438,-2.40234371 z m -1.511719,2.16796871 c -0.175781,0 -1.042969,-0.0820313 -1.042969,-2.16796871 0,-2.0976563 0.855469,-2.1796875 1.042969,-2.1796875 0.65625,0 1.253906,0.9375 1.253906,2.1679687 0,1.26562501 -0.609375,2.17968751 -1.253906,2.17968751 z m 0.433594,-8.96484371 c 0.08203,-0.1054688 0.105468,-0.1523438 0.105468,-0.2109375 0,-0.1523438 -0.128906,-0.2226563 -0.222656,-0.2226563 -0.117187,0 -0.152344,0.058594 -0.246094,0.1757813 -0.761718,1.03125 -1.78125,1.125 -2.238281,1.125 -0.222656,0 -1.253906,0 -2.226562,-0.9257813 -0.246094,-0.2578125 -0.515625,-0.375 -0.820313,-0.375 -0.867187,0 -1.722656,0.9960938 -1.722656,2.4023438 0,1.453125 0.867187,2.4140625 1.722656,2.4140625 0.855469,0 1.535156,-1.078125 1.535156,-2.4023438 0,-0.3515625 -0.03516,-0.7851562 -0.269531,-1.3828125 0.773438,0.4453125 1.453125,0.515625 1.792969,0.515625 0.328125,0 0.984375,-0.070312 1.617187,-0.4570312 l 0.01172,0.011719 -5.332031,8.09765626 c -0.07031,0.1171875 -0.09375,0.15234375 -0.09375,0.2109375 0,0.12890625 0.105469,0.22265625 0.222656,0.22265625 0.105469,0 0.164063,-0.0820313 0.222656,-0.1640625 z m -5.636719,4.1484375 c -0.164063,0 -1.042969,-0.082031 -1.042969,-2.1679688 0,-2.0976562 0.867188,-2.1796875 1.042969,-2.1796875 0.65625,0 1.253906,0.9375 1.253906,2.1679688 0,1.265625 -0.609375,2.1796875 -1.253906,2.1796875 z m 0,0"
       style="fill:#000000;fill-opacity:1;fill-rule:nonzero;stroke:none"
       aria-label="1.0%"
       transform="matrix(1.3333333,0,0,1.3333333,218.73467,219.32267)" />
    <path
       id="path7"
       d="m 1.5340547,-6.8425859 c 0.5039062,0.1640625 0.9257812,0.1757812 1.0546875,0.1757812 1.359375,0 2.2148437,-0.9960937 2.2148437,-1.1601562 0,-0.046875 -0.023437,-0.1054688 -0.09375,-0.1054688 -0.023437,0 -0.046875,0 -0.1523437,0.046875 -0.6679688,0.28125 -1.2421875,0.3164063 -1.5585938,0.3164063 -0.7851562,0 -1.3476562,-0.234375 -1.5820312,-0.328125 -0.082031,-0.035156 -0.1054688,-0.035156 -0.1171875,-0.035156 -0.09375,0 -0.09375,0.070312 -0.09375,0.2578125 v 3.5507813 c 0,0.2109375 0,0.2929687 0.140625,0.2929687 0.058594,0 0.070312,-0.011719 0.1992187,-0.1640625 0.328125,-0.4921875 0.890625,-0.7734375 1.4882813,-0.7734375 0.6328125,0 0.9492187,0.5859375 1.0429687,0.7851563 0.1992188,0.46875 0.2109375,1.0546875 0.2109375,1.5117187 0,0.4570313 0,1.1367188 -0.328125,1.67578126 -0.2695312,0.421875 -0.7382812,0.7265625 -1.2539062,0.7265625 -0.796875,0 -1.5703125,-0.5390625 -1.78125001,-1.40624996 0.0585938,0.023437 0.12890621,0.035156 0.18750001,0.035156 0.1992187,0 0.5273437,-0.1289062 0.5273437,-0.5273437 0,-0.3398438 -0.234375,-0.5273438 -0.5273437,-0.5273438 -0.21093751,0 -0.52734376,0.1054688 -0.52734376,0.5742188 0,1.00781246 0.80859376,2.16796871 2.14453126,2.16796871 1.3476562,0 2.53125,-1.125 2.53125,-2.64843751 0,-1.4179687 -0.9609375,-2.6015625 -2.2148438,-2.6015625 -0.6796875,0 -1.2070312,0.2929688 -1.5117187,0.6328125 z m 6.5214844,6.25781246 c 0,-0.328125 -0.28125,-0.57421876 -0.5742188,-0.57421876 -0.3515625,0 -0.5859375,0.28125001 -0.5859375,0.57421876 0,0.36328125 0.2929688,0.5859375 0.5742188,0.5859375 0.3164062,0 0.5859375,-0.24609375 0.5859375,-0.5859375 z M 14.459836,-3.8191484 c 0,-0.9960938 -0.05859,-1.96875 -0.492188,-2.8710938 -0.492187,-0.9960937 -1.347656,-1.2539062 -1.933593,-1.2539062 -0.691407,0 -1.546875,0.3398437 -1.980469,1.3359375 -0.3398438,0.75 -0.4570313,1.4882812 -0.4570313,2.7890625 0,1.1601562 0.082031,2.0273437 0.5156253,2.87109371 0.457031,0.9140625 1.289062,1.1953125 1.910156,1.1953125 1.042969,0 1.640625,-0.62109375 1.980469,-1.31250001 0.433593,-0.890625 0.457031,-2.0625 0.457031,-2.7539062 z m -2.4375,3.83203121 c -0.386719,0 -1.160156,-0.2109375 -1.382813,-1.52343751 -0.140625,-0.7148437 -0.140625,-1.6171875 -0.140625,-2.4609375 0,-0.9726562 0,-1.8632812 0.199219,-2.5664062 0.199219,-0.796875 0.808594,-1.171875 1.324219,-1.171875 0.457031,0 1.148437,0.28125 1.371094,1.3007812 0.152343,0.6796875 0.152343,1.6289063 0.152343,2.4375 0,0.8085938 0,1.7109375 -0.128906,2.4375 -0.222656,1.32421876 -0.972656,1.54687501 -1.394531,1.54687501 z M 24.051633,-1.7332109 c 0,-1.3710938 -0.679688,-2.4140625 -1.523438,-2.4140625 -0.878906,0 -1.722656,0.9960937 -1.722656,2.4023437 0,1.46484376 0.855469,2.41406251 1.722656,2.41406251 0.855469,0 1.523438,-1.078125 1.523438,-2.40234371 z m -1.511719,2.16796871 c -0.175781,0 -1.042969,-0.0820313 -1.042969,-2.16796871 0,-2.0976563 0.855469,-2.1796875 1.042969,-2.1796875 0.65625,0 1.253906,0.9375 1.253906,2.1679687 0,1.26562501 -0.609375,2.17968751 -1.253906,2.17968751 z m 0.433594,-8.96484371 c 0.08203,-0.1054688 0.105469,-0.1523438 0.105469,-0.2109375 0,-0.1523438 -0.128907,-0.2226563 -0.222657,-0.2226563 -0.117187,0 -0.152343,0.058594 -0.246093,0.1757813 -0.761719,1.03125 -1.78125,1.125 -2.238282,1.125 -0.222656,0 -1.253906,0 -2.226562,-0.9257813 -0.246094,-0.2578125 -0.515625,-0.375 -0.820313,-0.375 -0.867187,0 -1.722656,0.9960938 -1.722656,2.4023438 0,1.453125 0.867188,2.4140625 1.722656,2.4140625 0.855469,0 1.535157,-1.078125 1.535157,-2.4023438 0,-0.3515625 -0.03516,-0.7851562 -0.269532,-1.3828125 0.773438,0.4453125 1.453125,0.515625 1.792969,0.515625 0.328125,0 0.984375,-0.070312 1.617188,-0.4570312 l 0.01172,0.011719 -5.332031,8.09765626 c -0.07031,0.1171875 -0.09375,0.15234375 -0.09375,0.2109375 0,0.12890625 0.105469,0.22265625 0.222656,0.22265625 0.105469,0 0.164063,-0.0820313 0.222657,-0.1640625 z m -5.636719,4.1484375 c -0.164062,0 -1.042969,-0.082031 -1.042969,-2.1679688 0,-2.0976562 0.867188,-2.1796875 1.042969,-2.1796875 0.65625,0 1.253906,0.9375 1.253906,2.1679688 0,1.265625 -0.609375,2.1796875 -1.253906,2.1796875 z m 0,0"
       style="fill:#000000;fill-opacity:1;fill-rule:nonzero;stroke:none"
       aria-label="5.0%"
       transform="matrix(1.3333333,0,0,1.3333333,292.896,219.32267)" />
    <path
       id="path8"
       d="m 3.4445703,-7.6628984 c 0,-0.2695313 0,-0.28125 -0.2460937,-0.28125 -0.28125,0.3164062 -0.8789063,0.7617187 -2.109375,0.7617187 v 0.3515625 c 0.2695312,0 0.8671875,0 1.5234375,-0.3164062 v 6.22265621 c 0,0.43359375 -0.035156,0.57421875 -1.078125,0.57421875 h -0.375 v 0.3515625 c 0.3164062,-0.0234375 1.4765625,-0.0234375 1.875,-0.0234375 0.3984375,0 1.546875,0 1.8632812,0.0234375 v -0.3515625 H 4.5344141 c -1.0546875,0 -1.0898438,-0.140625 -1.0898438,-0.57421875 z m 7.7636717,3.84375 c 0,-0.9960938 -0.05859,-1.96875 -0.492187,-2.8710938 -0.492188,-0.9960937 -1.3476566,-1.2539062 -1.9335941,-1.2539062 -0.6914062,0 -1.546875,0.3398437 -1.9804687,1.3359375 -0.3398438,0.75 -0.4570313,1.4882812 -0.4570313,2.7890625 0,1.1601562 0.082031,2.0273437 0.515625,2.87109371 0.4570313,0.9140625 1.2890625,1.1953125 1.9101563,1.1953125 1.0429687,0 1.6406248,-0.62109375 1.9804688,-1.31250001 0.433594,-0.890625 0.457031,-2.0625 0.457031,-2.7539062 z M 8.7707422,0.01288281 c -0.3867188,0 -1.1601563,-0.2109375 -1.3828125,-1.52343751 -0.140625,-0.7148437 -0.140625,-1.6171875 -0.140625,-2.4609375 0,-0.9726562 0,-1.8632812 0.1992187,-2.5664062 0.1992188,-0.796875 0.8085938,-1.171875 1.3242188,-1.171875 0.4570312,0 1.1484375,0.28125 1.3710938,1.3007812 0.152344,0.6796875 0.152344,1.6289063 0.152344,2.4375 0,0.8085938 0,1.7109375 -0.128907,2.4375 -0.2226558,1.32421876 -0.9726558,1.54687501 -1.3945308,1.54687501 z m 5.1386718,-0.59765625 c 0,-0.328125 -0.28125,-0.57421876 -0.574219,-0.57421876 -0.351562,0 -0.585937,0.28125001 -0.585937,0.57421876 0,0.36328125 0.292969,0.5859375 0.574219,0.5859375 0.316406,0 0.585937,-0.24609375 0.585937,-0.5859375 z m 6.404297,-3.23437496 c 0,-0.9960938 -0.05859,-1.96875 -0.492188,-2.8710938 -0.492187,-0.9960937 -1.347656,-1.2539062 -1.933593,-1.2539062 -0.691407,0 -1.546875,0.3398437 -1.980469,1.3359375 -0.339844,0.75 -0.457031,1.4882812 -0.457031,2.7890625 0,1.1601562 0.08203,2.0273437 0.515625,2.87109371 0.457031,0.9140625 1.289062,1.1953125 1.910156,1.1953125 1.042969,0 1.640625,-0.62109375 1.980469,-1.31250001 0.433593,-0.890625 0.457031,-2.0625 0.457031,-2.7539062 z m -2.4375,3.83203121 c -0.386719,0 -1.160156,-0.2109375 -1.382813,-1.52343751 -0.140625,-0.7148437 -0.140625,-1.6171875 -0.140625,-2.4609375 0,-0.9726562 0,-1.8632812 0.199219,-2.5664062 0.199219,-0.796875 0.808594,-1.171875 1.324219,-1.171875 0.457031,0 1.148437,0.28125 1.371094,1.3007812 0.152343,0.6796875 0.152343,1.6289063 0.152343,2.4375 0,0.8085938 0,1.7109375 -0.128906,2.4375 -0.222656,1.32421876 -0.972656,1.54687501 -1.394531,1.54687501 z M 29.905508,-1.7332109 c 0,-1.3710938 -0.679688,-2.4140625 -1.523438,-2.4140625 -0.878906,0 -1.722656,0.9960937 -1.722656,2.4023437 0,1.46484376 0.855469,2.41406251 1.722656,2.41406251 0.855469,0 1.523438,-1.078125 1.523438,-2.40234371 z m -1.511719,2.16796871 c -0.175781,0 -1.042969,-0.0820313 -1.042969,-2.16796871 0,-2.0976563 0.855469,-2.1796875 1.042969,-2.1796875 0.65625,0 1.253906,0.9375 1.253906,2.1679687 0,1.26562501 -0.609375,2.17968751 -1.253906,2.17968751 z m 0.433594,-8.96484371 c 0.08203,-0.1054688 0.105469,-0.1523438 0.105469,-0.2109375 0,-0.1523438 -0.128907,-0.2226563 -0.222657,-0.2226563 -0.117187,0 -0.152343,0.058594 -0.246093,0.1757813 -0.761719,1.03125 -1.78125,1.125 -2.238282,1.125 -0.222656,0 -1.253906,0 -2.226562,-0.9257813 -0.246094,-0.2578125 -0.515625,-0.375 -0.820313,-0.375 -0.867187,0 -1.722656,0.9960938 -1.722656,2.4023438 0,1.453125 0.867188,2.4140625 1.722656,2.4140625 0.855469,0 1.535157,-1.078125 1.535157,-2.4023438 0,-0.3515625 -0.03516,-0.7851562 -0.269532,-1.3828125 0.773438,0.4453125 1.453125,0.515625 1.792969,0.515625 0.328125,0 0.984375,-0.070312 1.617188,-0.4570312 l 0.01172,0.011719 -5.332031,8.09765626 c -0.07031,0.1171875 -0.09375,0.15234375 -0.09375,0.2109375 0,0.12890625 0.105469,0.22265625 0.222656,0.22265625 0.105469,0 0.164063,-0.0820313 0.222657,-0.1640625 z m -5.636719,4.1484375 c -0.164062,0 -1.042969,-0.082031 -1.042969,-2.1679688 0,-2.0976562 0.867188,-2.1796875 1.042969,-2.1796875 0.65625,0 1.253906,0.9375 1.253906,2.1679688 0,1.265625 -0.609375,2.1796875 -1.253906,2.1796875 z m 0,0"
       style="fill:#000000;fill-opacity:1;fill-rule:nonzero;stroke:none"
       aria-label="10.0%"
       transform="matrix(1.3333333,0,0,1.3333333,363.15333,219.32267)" />
    <path
       id="path9"
       d="m 5.3563125,-3.8209219 c 0,-0.9960937 -0.058594,-1.96875 -0.4921875,-2.8710937 -0.4921875,-0.9960938 -1.3476562,-1.2539063 -1.9335937,-1.2539063 -0.6914063,0 -1.546875,0.3398438 -1.9804688,1.3359375 -0.33984375,0.75 -0.45703125,1.4882813 -0.45703125,2.7890625 0,1.1601563 0.0820313,2.0273438 0.51562505,2.87109378 0.4570312,0.9140625 1.2890625,1.1953125 1.9101562,1.1953125 1.0429688,0 1.640625,-0.62109375 1.9804688,-1.31249998 0.4335937,-0.890625 0.4570312,-2.0625 0.4570312,-2.7539063 z m -2.4375,3.83203128 c -0.3867187,0 -1.1601562,-0.2109375 -1.3828125,-1.52343748 -0.140625,-0.7148438 -0.140625,-1.6171875 -0.140625,-2.4609375 0,-0.9726563 0,-1.8632813 0.1992188,-2.5664063 0.1992187,-0.796875 0.8085937,-1.171875 1.3242187,-1.171875 0.4570313,0 1.1484375,0.28125 1.3710938,1.3007813 0.1523437,0.6796875 0.1523437,1.6289062 0.1523437,2.4375 0,0.8085937 0,1.7109375 -0.1289062,2.4375 -0.2226563,1.32421873 -0.9726563,1.54687498 -1.3945313,1.54687498 z m 0,0"
       style="fill:#000000;fill-opacity:1;fill-rule:nonzero;stroke:none"
       aria-label="0"
       transform="matrix(1.3333333,0,0,1.3333333,43.952,201.368)" />
    <g
       id="g9"
       aria-label="0.1"
       transform="matrix(1.3333333,0,0,1.3333333,31.812,139.40267)">
      <path
         id="path10"
         d="m 5.3558438,-3.8205547 c 0,-0.9960937 -0.058594,-1.96875 -0.4921875,-2.8710937 C 4.3714688,-7.6877422 3.516,-7.9455547 2.9300625,-7.9455547 c -0.6914062,0 -1.546875,0.3398438 -1.98046875,1.3359375 -0.33984375,0.75 -0.45703125,1.4882813 -0.45703125,2.7890625 0,1.1601563 0.0820313,2.0273438 0.515625,2.87109376 0.4570313,0.9140625 1.2890625,1.1953125 1.9101563,1.1953125 1.0429687,0 1.640625,-0.62109375 1.9804687,-1.31249996 0.4335938,-0.890625 0.4570313,-2.0625 0.4570313,-2.7539063 z m -2.4375,3.83203126 c -0.3867188,0 -1.1601563,-0.2109375 -1.3828125,-1.52343746 -0.140625,-0.7148438 -0.140625,-1.6171875 -0.140625,-2.4609375 0,-0.9726563 0,-1.8632813 0.1992187,-2.5664063 0.1992188,-0.796875 0.8085938,-1.171875 1.3242188,-1.171875 0.4570312,0 1.1484375,0.28125 1.3710937,1.3007813 0.1523438,0.6796875 0.1523438,1.6289062 0.1523438,2.4375 0,0.8085937 0,1.7109375 -0.1289063,2.4375 -0.2226562,1.32421871 -0.9726562,1.54687496 -1.3945312,1.54687496 z m 0,0"
         style="fill:#000000;fill-opacity:1;fill-rule:nonzero;stroke:none" />
      <path
         id="path11"
         d="m 8.0570156,-0.57446094 c 0,-0.3515625 -0.2929687,-0.58593746 -0.5742187,-0.58593746 -0.3515625,0 -0.5859375,0.29296871 -0.5859375,0.57421871 0,0.3515625 0.28125,0.5859375025 0.5742187,0.5859375025 0.3398438,0 0.5859375,-0.2812500025 0.5859375,-0.5742187525 z m 0,0"
         style="fill:#000000;fill-opacity:1;fill-rule:nonzero;stroke:none" />
      <path
         id="path12"
         d="m 12.551156,-7.6643047 c 0,-0.2695312 0,-0.28125 -0.246093,-0.28125 -0.28125,0.3164063 -0.878907,0.7617188 -2.109375,0.7617188 v 0.3515625 c 0.269531,0 0.867187,0 1.523437,-0.3164063 v 6.22265626 c 0,0.43359375 -0.03516,0.57421875 -1.078125,0.57421875 H 10.266 V -2.421875e-4 C 10.582406,-0.02367969 11.742563,-0.02367969 12.141,-0.02367969 c 0.398438,0 1.546875,0 1.863281,0.0234375025 V -0.35180469 H 13.641 c -1.054687,0 -1.089844,-0.140625 -1.089844,-0.57421875 z m 0,0"
         style="fill:#000000;fill-opacity:1;fill-rule:nonzero;stroke:none" />
    </g>
    <g
       id="g12"
       aria-label="0.2"
       transform="matrix(1.3333333,0,0,1.3333333,31.812,77.438667)">
      <path
         id="path13"
         d="m 5.3558438,-3.8211875 c 0,-0.9960937 -0.058594,-1.96875 -0.4921875,-2.8710937 C 4.3714688,-7.688375 3.516,-7.9461875 2.9300625,-7.9461875 c -0.6914062,0 -1.546875,0.3398438 -1.98046875,1.3359375 -0.33984375,0.75 -0.45703125,1.4882813 -0.45703125,2.7890625 0,1.1601563 0.0820313,2.0273438 0.515625,2.87109375 0.4570313,0.9140625 1.2890625,1.1953125 1.9101563,1.1953125 1.0429687,0 1.640625,-0.62109375 1.9804687,-1.31249995 0.4335938,-0.890625 0.4570313,-2.0625 0.4570313,-2.7539063 z m -2.4375,3.83203125 c -0.3867188,0 -1.1601563,-0.2109375 -1.3828125,-1.52343745 -0.140625,-0.7148438 -0.140625,-1.6171875 -0.140625,-2.4609375 0,-0.9726563 0,-1.8632813 0.1992187,-2.5664063 0.1992188,-0.796875 0.8085938,-1.171875 1.3242188,-1.171875 0.4570312,0 1.1484375,0.28125 1.3710937,1.3007813 0.1523438,0.6796875 0.1523438,1.6289062 0.1523438,2.4375 0,0.8085937 0,1.7109375 -0.1289063,2.4375 -0.2226562,1.3242187 -0.9726562,1.54687495 -1.3945312,1.54687495 z m 0,0"
         style="fill:#000000;fill-opacity:1;fill-rule:nonzero;stroke:none" />
      <path
         id="path14"
         d="m 8.0570156,-0.57509375 c 0,-0.3515625 -0.2929687,-0.58593745 -0.5742187,-0.58593745 -0.3515625,0 -0.5859375,0.2929687 -0.5859375,0.5742187 0,0.3515625 0.28125,0.5859375 0.5742187,0.5859375 0.3398438,0 0.5859375,-0.28125 0.5859375,-0.57421875 z m 0,0"
         style="fill:#000000;fill-opacity:1;fill-rule:nonzero;stroke:none" />
      <path
         id="path15"
         d="m 14.367563,-2.0047812 h -0.269532 c -0.03516,0.1992187 -0.128906,0.8554687 -0.246093,1.0429687 -0.08203,0.1171875 -0.761719,0.1171875 -1.125,0.1171875 h -2.214844 c 0.328125,-0.28125 1.054687,-1.0429687 1.371094,-1.3359375 1.816406,-1.6640625 2.484375,-2.2851562 2.484375,-3.46875 0,-1.3828125 -1.089844,-2.296875 -2.472657,-2.296875 -1.394531,0 -2.2031247,1.1835938 -2.2031247,2.203125 0,0.609375 0.5273437,0.609375 0.5624997,0.609375 0.246094,0 0.5625,-0.1757812 0.5625,-0.5625 0,-0.328125 -0.234375,-0.5507812 -0.5625,-0.5507812 -0.105468,0 -0.128906,0 -0.164062,0.011719 0.222656,-0.8203125 0.867187,-1.3710937 1.640625,-1.3710937 1.019531,0 1.640625,0.8554687 1.640625,1.9570312 0,1.0078125 -0.585938,1.8984375 -1.265625,2.6601563 L 9.6917813,-0.282125 v 0.28125 h 4.3593747 z m 0,0"
         style="fill:#000000;fill-opacity:1;fill-rule:nonzero;stroke:none" />
    </g>
    <g
       id="g15"
       aria-label="0.3"
       transform="matrix(1.3333333,0,0,1.3333333,31.812,15.474667)">
      <path
         id="path16"
         d="m 5.3558438,-3.8188906 c 0,-0.9960938 -0.058594,-1.96875 -0.4921875,-2.8710938 C 4.3714688,-7.6860781 3.516,-7.9438906 2.9300625,-7.9438906 c -0.6914062,0 -1.546875,0.3398437 -1.98046875,1.3359375 -0.33984375,0.75 -0.45703125,1.4882812 -0.45703125,2.7890625 0,1.1601562 0.0820313,2.0273437 0.515625,2.87109373 0.4570313,0.9140625 1.2890625,1.1953125 1.9101563,1.1953125 1.0429687,0 1.640625,-0.62109375 1.9804687,-1.31250003 0.4335938,-0.890625 0.4570313,-2.0625 0.4570313,-2.7539062 z m -2.4375,3.83203123 c -0.3867188,0 -1.1601563,-0.2109375 -1.3828125,-1.52343753 -0.140625,-0.7148437 -0.140625,-1.6171875 -0.140625,-2.4609375 0,-0.9726562 0,-1.8632812 0.1992187,-2.5664062 0.1992188,-0.796875 0.8085938,-1.171875 1.3242188,-1.171875 0.4570312,0 1.1484375,0.28125 1.3710937,1.3007812 0.1523438,0.6796875 0.1523438,1.6289063 0.1523438,2.4375 0,0.8085938 0,1.7109375 -0.1289063,2.4375 -0.2226562,1.32421878 -0.9726562,1.54687503 -1.3945312,1.54687503 z m 0,0"
         style="fill:#000000;fill-opacity:1;fill-rule:nonzero;stroke:none" />
      <path
         id="path17"
         d="m 8.0570156,-0.57279687 c 0,-0.3515625 -0.2929687,-0.58593753 -0.5742187,-0.58593753 -0.3515625,0 -0.5859375,0.29296878 -0.5859375,0.57421878 0,0.3515625 0.28125,0.5859375 0.5742187,0.5859375 0.3398438,0 0.5859375,-0.28125 0.5859375,-0.57421875 z m 0,0"
         style="fill:#000000;fill-opacity:1;fill-rule:nonzero;stroke:none" />
      <path
         id="path18"
         d="m 11.308969,-4.2876406 c -0.210938,0.011719 -0.257813,0.023437 -0.257813,0.1289062 0,0.1171875 0.05859,0.1171875 0.28125,0.1171875 h 0.550782 c 1.007812,0 1.464843,0.84375 1.464843,1.9921875 0,1.55859378 -0.808593,1.98046878 -1.394531,1.98046878 -0.574219,0 -1.558594,-0.28125 -1.898437,-1.06640628 0.375,0.058594 0.726562,-0.1523437 0.726562,-0.5859375 0,-0.3398437 -0.257812,-0.5859375 -0.585937,-0.5859375 -0.2929692,0 -0.5976567,0.1640625 -0.5976567,0.6210938 0,1.06640623 1.0664067,1.93359373 2.3906247,1.93359373 1.417969,0 2.472657,-1.078125 2.472657,-2.28515623 0,-1.1015625 -0.890625,-1.96875 -2.027344,-2.1679688 1.03125,-0.3046875 1.699219,-1.171875 1.699219,-2.109375 0,-0.9375 -0.972657,-1.6289062 -2.132813,-1.6289062 -1.195312,0 -2.0859375,0.7265625 -2.0859375,1.59375 0,0.4804687 0.3750005,0.5742187 0.5507815,0.5742187 0.257812,0 0.539062,-0.1757812 0.539062,-0.5390625 0,-0.375 -0.28125,-0.5390625 -0.550781,-0.5390625 -0.07031,0 -0.09375,0 -0.128906,0.011719 0.457031,-0.8203125 1.582031,-0.8203125 1.640625,-0.8203125 0.386719,0 1.171875,0.1757812 1.171875,1.3476562 0,0.234375 -0.03516,0.9023438 -0.386719,1.4179688 -0.351562,0.5273437 -0.761719,0.5625 -1.089844,0.5742187 z m 0,0"
         style="fill:#000000;fill-opacity:1;fill-rule:nonzero;stroke:none" />
    </g>
    <path
       id="path19"
       d="m -8.96649,0 h 7.97021 V 110.00142 H -8.96649 Z M 46.6545,0 h 7.97021 V 110.00142 H 46.6545 Z m 55.621,0 h 7.97021 v 110.00142 h -7.97021 z m 55.621,0 h 7.97021 v 110.00142 h -7.97021 z m 55.621,0 h 7.97021 v 110.00142 h -7.97021 z"
       style="fill:#b3b3ff;fill-opacity:1;fill-rule:nonzero;stroke:#0000ff;stroke-width:0.3985;stroke-linecap:butt;stroke-linejoin:miter;stroke-miterlimit:10;stroke-dasharray:none;stroke-opacity:1"
       transform="matrix(1.3333333,0,0,-1.3333333,86.889333,196.23067)"
       clip-path="url(#clipPath20)" />
    <path
       id="path21"
       d="m -4.98138,110.00142 v 16.59683"
       style="fill:#b3b3ff;fill-opacity:1;fill-rule:nonzero;stroke:#0000ff;stroke-width:0.3985;stroke-linecap:butt;stroke-linejoin:miter;stroke-miterlimit:10;stroke-dasharray:none;stroke-opacity:1"
       transform="matrix(1.3333333,0,0,-1.3333333,86.889333,196.23067)"
       clip-path="url(#clipPath22)" />
    <path
       id="path23"
       d="m 0,1.99255 v -3.9851"
       style="fill:none;stroke:#0000ff;stroke-width:0.3985;stroke-linecap:butt;stroke-linejoin:miter;stroke-miterlimit:10;stroke-dasharray:none;stroke-opacity:1"
       transform="matrix(0,-1.3333333,-1.3333333,0,80.246667,27.436)"
       clip-path="url(#clipPath24)" />
    <path
       id="path25"
       d="M -4.98138,110.00142 V 93.40459"
       style="fill:#b3b3ff;fill-opacity:1;fill-rule:nonzero;stroke:#0000ff;stroke-width:0.3985;stroke-linecap:butt;stroke-linejoin:miter;stroke-miterlimit:10;stroke-dasharray:none;stroke-opacity:1"
       transform="matrix(1.3333333,0,0,-1.3333333,86.889333,196.23067)"
       clip-path="url(#clipPath26)" />
    <path
       id="path27"
       d="m 0,1.99255 v -3.9851"
       style="fill:none;stroke:#0000ff;stroke-width:0.3985;stroke-linecap:butt;stroke-linejoin:miter;stroke-miterlimit:10;stroke-dasharray:none;stroke-opacity:1"
       transform="matrix(0,1.3333333,1.3333333,0,80.246667,71.693333)"
       clip-path="url(#clipPath28)" />
    <path
       id="path29"
       d="m 50.6396,110.00142 v 16.59683"
       style="fill:#b3b3ff;fill-opacity:1;fill-rule:nonzero;stroke:#0000ff;stroke-width:0.3985;stroke-linecap:butt;stroke-linejoin:miter;stroke-miterlimit:10;stroke-dasharray:none;stroke-opacity:1"
       transform="matrix(1.3333333,0,0,-1.3333333,86.889333,196.23067)"
       clip-path="url(#clipPath30)" />
    <path
       id="path31"
       d="m 0,1.99255 v -3.9851"
       style="fill:none;stroke:#0000ff;stroke-width:0.3985;stroke-linecap:butt;stroke-linejoin:miter;stroke-miterlimit:10;stroke-dasharray:none;stroke-opacity:1"
       transform="matrix(0,-1.3333333,-1.3333333,0,154.40667,27.436)"
       clip-path="url(#clipPath32)" />
    <path
       id="path33"
       d="M 50.6396,110.00142 V 93.40459"
       style="fill:#b3b3ff;fill-opacity:1;fill-rule:nonzero;stroke:#0000ff;stroke-width:0.3985;stroke-linecap:butt;stroke-linejoin:miter;stroke-miterlimit:10;stroke-dasharray:none;stroke-opacity:1"
       transform="matrix(1.3333333,0,0,-1.3333333,86.889333,196.23067)"
       clip-path="url(#clipPath34)" />
    <path
       id="path35"
       d="m 0,1.99255 v -3.9851"
       style="fill:none;stroke:#0000ff;stroke-width:0.3985;stroke-linecap:butt;stroke-linejoin:miter;stroke-miterlimit:10;stroke-dasharray:none;stroke-opacity:1"
       transform="matrix(0,1.3333333,1.3333333,0,154.408,71.693333)"
       clip-path="url(#clipPath36)" />
    <path
       id="path37"
       d="m 106.2606,110.00142 v 16.59683"
       style="fill:#b3b3ff;fill-opacity:1;fill-rule:nonzero;stroke:#0000ff;stroke-width:0.3985;stroke-linecap:butt;stroke-linejoin:miter;stroke-miterlimit:10;stroke-dasharray:none;stroke-opacity:1"
       transform="matrix(1.3333333,0,0,-1.3333333,86.889333,196.23067)"
       clip-path="url(#clipPath38)" />
    <path
       id="path39"
       d="m 0,1.99255 v -3.9851"
       style="fill:none;stroke:#0000ff;stroke-width:0.3985;stroke-linecap:butt;stroke-linejoin:miter;stroke-miterlimit:10;stroke-dasharray:none;stroke-opacity:1"
       transform="matrix(0,-1.3333333,-1.3333333,0,228.568,27.436)"
       clip-path="url(#clipPath40)" />
    <path
       id="path41"
       d="M 106.2606,110.00142 V 93.40459"
       style="fill:#b3b3ff;fill-opacity:1;fill-rule:nonzero;stroke:#0000ff;stroke-width:0.3985;stroke-linecap:butt;stroke-linejoin:miter;stroke-miterlimit:10;stroke-dasharray:none;stroke-opacity:1"
       transform="matrix(1.3333333,0,0,-1.3333333,86.889333,196.23067)"
       clip-path="url(#clipPath42)" />
    <path
       id="path43"
       d="m 0,1.99255 v -3.9851"
       style="fill:none;stroke:#0000ff;stroke-width:0.3985;stroke-linecap:butt;stroke-linejoin:miter;stroke-miterlimit:10;stroke-dasharray:none;stroke-opacity:1"
       transform="matrix(0,1.3333333,1.3333333,0,228.56933,71.693333)"
       clip-path="url(#clipPath44)" />
    <path
       id="path45"
       d="m 161.8816,110.00142 v 16.59683"
       style="fill:#b3b3ff;fill-opacity:1;fill-rule:nonzero;stroke:#0000ff;stroke-width:0.3985;stroke-linecap:butt;stroke-linejoin:miter;stroke-miterlimit:10;stroke-dasharray:none;stroke-opacity:1"
       transform="matrix(1.3333333,0,0,-1.3333333,86.889333,196.23067)"
       clip-path="url(#clipPath46)" />
    <path
       id="path47"
       d="m 0,1.99255 v -3.9851"
       style="fill:none;stroke:#0000ff;stroke-width:0.3985;stroke-linecap:butt;stroke-linejoin:miter;stroke-miterlimit:10;stroke-dasharray:none;stroke-opacity:1"
       transform="matrix(0,-1.3333333,-1.3333333,0,302.728,27.436)"
       clip-path="url(#clipPath48)" />
    <path
       id="path49"
       d="M 161.8816,110.00142 V 93.40459"
       style="fill:#b3b3ff;fill-opacity:1;fill-rule:nonzero;stroke:#0000ff;stroke-width:0.3985;stroke-linecap:butt;stroke-linejoin:miter;stroke-miterlimit:10;stroke-dasharray:none;stroke-opacity:1"
       transform="matrix(1.3333333,0,0,-1.3333333,86.889333,196.23067)"
       clip-path="url(#clipPath50)" />
    <path
       id="path51"
       d="m 0,1.99255 v -3.9851"
       style="fill:none;stroke:#0000ff;stroke-width:0.3985;stroke-linecap:butt;stroke-linejoin:miter;stroke-miterlimit:10;stroke-dasharray:none;stroke-opacity:1"
       transform="matrix(0,1.3333333,1.3333333,0,302.72933,71.693333)"
       clip-path="url(#clipPath52)" />
    <path
       id="path53"
       d="m 217.50261,110.00142 v 16.59683"
       style="fill:#b3b3ff;fill-opacity:1;fill-rule:nonzero;stroke:#0000ff;stroke-width:0.3985;stroke-linecap:butt;stroke-linejoin:miter;stroke-miterlimit:10;stroke-dasharray:none;stroke-opacity:1"
       transform="matrix(1.3333333,0,0,-1.3333333,86.889333,196.23067)"
       clip-path="url(#clipPath54)" />
    <path
       id="path55"
       d="m 0,1.99255 v -3.9851"
       style="fill:none;stroke:#0000ff;stroke-width:0.3985;stroke-linecap:butt;stroke-linejoin:miter;stroke-miterlimit:10;stroke-dasharray:none;stroke-opacity:1"
       transform="matrix(0,-1.3333333,-1.3333333,0,376.888,27.436)"
       clip-path="url(#clipPath56)" />
    <path
       id="path57"
       d="M 217.50261,110.00142 V 93.40459"
       style="fill:#b3b3ff;fill-opacity:1;fill-rule:nonzero;stroke:#0000ff;stroke-width:0.3985;stroke-linecap:butt;stroke-linejoin:miter;stroke-miterlimit:10;stroke-dasharray:none;stroke-opacity:1"
       transform="matrix(1.3333333,0,0,-1.3333333,86.889333,196.23067)"
       clip-path="url(#clipPath58)" />
    <path
       id="path59"
       d="m 0,1.99255 v -3.9851"
       style="fill:none;stroke:#0000ff;stroke-width:0.3985;stroke-linecap:butt;stroke-linejoin:miter;stroke-miterlimit:10;stroke-dasharray:none;stroke-opacity:1"
       transform="matrix(0,1.3333333,1.3333333,0,376.88933,71.693333)"
       clip-path="url(#clipPath60)" />
    <path
       id="path61"
       d="M 0.99628,0 H 8.96649 V 27.98055 H 0.99628 Z m 55.62098,0 h 7.97021 v 29.20563 h -7.97021 z m 55.62101,0 h 7.97021 v 29.0441 h -7.97021 z m 55.621,0 h 7.97021 v 29.0324 h -7.97021 z m 55.621,0 h 7.97021 v 29.0324 h -7.97021 z"
       style="fill:#ffb3b3;fill-opacity:1;fill-rule:nonzero;stroke:#ff0000;stroke-width:0.3985;stroke-linecap:butt;stroke-linejoin:miter;stroke-miterlimit:10;stroke-dasharray:none;stroke-opacity:1"
       transform="matrix(1.3333333,0,0,-1.3333333,86.889333,196.23067)"
       clip-path="url(#clipPath62)" />
    <path
       id="path63"
       d="m 4.98138,27.98055 v 3.54093"
       style="fill:#ffb3b3;fill-opacity:1;fill-rule:nonzero;stroke:#ff0000;stroke-width:0.3985;stroke-linecap:butt;stroke-linejoin:miter;stroke-miterlimit:10;stroke-dasharray:none;stroke-opacity:1"
       transform="matrix(1.3333333,0,0,-1.3333333,86.889333,196.23067)"
       clip-path="url(#clipPath64)" />
    <path
       id="path65"
       d="m 0,1.99255 v -3.9851"
       style="fill:none;stroke:#ff0000;stroke-width:0.3985;stroke-linecap:butt;stroke-linejoin:miter;stroke-miterlimit:10;stroke-dasharray:none;stroke-opacity:1"
       transform="matrix(0,-1.3333333,-1.3333333,0,93.532,154.20267)"
       clip-path="url(#clipPath66)" />
    <path
       id="path67"
       d="M 4.98138,27.98055 V 24.43959"
       style="fill:#ffb3b3;fill-opacity:1;fill-rule:nonzero;stroke:#ff0000;stroke-width:0.3985;stroke-linecap:butt;stroke-linejoin:miter;stroke-miterlimit:10;stroke-dasharray:none;stroke-opacity:1"
       transform="matrix(1.3333333,0,0,-1.3333333,86.889333,196.23067)"
       clip-path="url(#clipPath68)" />
    <path
       id="path69"
       d="m 0,1.99255 v -3.9851"
       style="fill:none;stroke:#ff0000;stroke-width:0.3985;stroke-linecap:butt;stroke-linejoin:miter;stroke-miterlimit:10;stroke-dasharray:none;stroke-opacity:1"
       transform="matrix(0,1.3333333,1.3333333,0,93.530667,163.64533)"
       clip-path="url(#clipPath70)" />
    <path
       id="path71"
       d="M 60.60237,29.20563 V 38.7427"
       style="fill:#ffb3b3;fill-opacity:1;fill-rule:nonzero;stroke:#ff0000;stroke-width:0.3985;stroke-linecap:butt;stroke-linejoin:miter;stroke-miterlimit:10;stroke-dasharray:none;stroke-opacity:1"
       transform="matrix(1.3333333,0,0,-1.3333333,86.889333,196.23067)"
       clip-path="url(#clipPath72)" />
    <path
       id="path73"
       d="m 0,1.99255 v -3.9851"
       style="fill:none;stroke:#ff0000;stroke-width:0.3985;stroke-linecap:butt;stroke-linejoin:miter;stroke-miterlimit:10;stroke-dasharray:none;stroke-opacity:1"
       transform="matrix(0,-1.3333333,-1.3333333,0,167.692,144.57467)"
       clip-path="url(#clipPath74)" />
    <path
       id="path75"
       d="M 60.60237,29.20563 V 19.66855"
       style="fill:#ffb3b3;fill-opacity:1;fill-rule:nonzero;stroke:#ff0000;stroke-width:0.3985;stroke-linecap:butt;stroke-linejoin:miter;stroke-miterlimit:10;stroke-dasharray:none;stroke-opacity:1"
       transform="matrix(1.3333333,0,0,-1.3333333,86.889333,196.23067)"
       clip-path="url(#clipPath76)" />
    <path
       id="path77"
       d="m 0,1.99255 v -3.9851"
       style="fill:none;stroke:#ff0000;stroke-width:0.3985;stroke-linecap:butt;stroke-linejoin:miter;stroke-miterlimit:10;stroke-dasharray:none;stroke-opacity:1"
       transform="matrix(0,1.3333333,1.3333333,0,167.692,170.00667)"
       clip-path="url(#clipPath78)" />
    <path
       id="path79"
       d="m 116.22337,29.0441 v 9.17094"
       style="fill:#ffb3b3;fill-opacity:1;fill-rule:nonzero;stroke:#ff0000;stroke-width:0.3985;stroke-linecap:butt;stroke-linejoin:miter;stroke-miterlimit:10;stroke-dasharray:none;stroke-opacity:1"
       transform="matrix(1.3333333,0,0,-1.3333333,86.889333,196.23067)"
       clip-path="url(#clipPath80)" />
    <path
       id="path81"
       d="m 0,1.99255 v -3.9851"
       style="fill:none;stroke:#ff0000;stroke-width:0.3985;stroke-linecap:butt;stroke-linejoin:miter;stroke-miterlimit:10;stroke-dasharray:none;stroke-opacity:1"
       transform="matrix(0,-1.3333333,-1.3333333,0,241.85067,145.27867)"
       clip-path="url(#clipPath82)" />
    <path
       id="path83"
       d="M 116.22337,29.0441 V 19.87315"
       style="fill:#ffb3b3;fill-opacity:1;fill-rule:nonzero;stroke:#ff0000;stroke-width:0.3985;stroke-linecap:butt;stroke-linejoin:miter;stroke-miterlimit:10;stroke-dasharray:none;stroke-opacity:1"
       transform="matrix(1.3333333,0,0,-1.3333333,86.889333,196.23067)"
       clip-path="url(#clipPath84)" />
    <path
       id="path85"
       d="m 0,1.99255 v -3.9851"
       style="fill:none;stroke:#ff0000;stroke-width:0.3985;stroke-linecap:butt;stroke-linejoin:miter;stroke-miterlimit:10;stroke-dasharray:none;stroke-opacity:1"
       transform="matrix(0,1.3333333,1.3333333,0,241.85067,169.73333)"
       clip-path="url(#clipPath86)" />
    <path
       id="path87"
       d="m 171.84438,29.0324 v 9.0332"
       style="fill:#ffb3b3;fill-opacity:1;fill-rule:nonzero;stroke:#ff0000;stroke-width:0.3985;stroke-linecap:butt;stroke-linejoin:miter;stroke-miterlimit:10;stroke-dasharray:none;stroke-opacity:1"
       transform="matrix(1.3333333,0,0,-1.3333333,86.889333,196.23067)"
       clip-path="url(#clipPath88)" />
    <path
       id="path89"
       d="m 0,1.99255 v -3.9851"
       style="fill:none;stroke:#ff0000;stroke-width:0.3985;stroke-linecap:butt;stroke-linejoin:miter;stroke-miterlimit:10;stroke-dasharray:none;stroke-opacity:1"
       transform="matrix(0,-1.3333333,-1.3333333,0,316.01333,145.47733)"
       clip-path="url(#clipPath90)" />
    <path
       id="path91"
       d="M 171.84438,29.0324 V 19.99919"
       style="fill:#ffb3b3;fill-opacity:1;fill-rule:nonzero;stroke:#ff0000;stroke-width:0.3985;stroke-linecap:butt;stroke-linejoin:miter;stroke-miterlimit:10;stroke-dasharray:none;stroke-opacity:1"
       transform="matrix(1.3333333,0,0,-1.3333333,86.889333,196.23067)"
       clip-path="url(#clipPath92)" />
    <path
       id="path93"
       d="m 0,1.99255 v -3.9851"
       style="fill:none;stroke:#ff0000;stroke-width:0.3985;stroke-linecap:butt;stroke-linejoin:miter;stroke-miterlimit:10;stroke-dasharray:none;stroke-opacity:1"
       transform="matrix(0,1.3333333,1.3333333,0,316.012,169.56533)"
       clip-path="url(#clipPath94)" />
    <path
       id="path95"
       d="m 227.46538,29.0324 v 9.0332"
       style="fill:#ffb3b3;fill-opacity:1;fill-rule:nonzero;stroke:#ff0000;stroke-width:0.3985;stroke-linecap:butt;stroke-linejoin:miter;stroke-miterlimit:10;stroke-dasharray:none;stroke-opacity:1"
       transform="matrix(1.3333333,0,0,-1.3333333,86.889333,196.23067)"
       clip-path="url(#clipPath96)" />
    <path
       id="path97"
       d="m 0,1.99255 v -3.9851"
       style="fill:none;stroke:#ff0000;stroke-width:0.3985;stroke-linecap:butt;stroke-linejoin:miter;stroke-miterlimit:10;stroke-dasharray:none;stroke-opacity:1"
       transform="matrix(0,-1.3333333,-1.3333333,0,390.17333,145.47733)"
       clip-path="url(#clipPath98)" />
    <path
       id="path99"
       d="M 227.46538,29.0324 V 19.99919"
       style="fill:#ffb3b3;fill-opacity:1;fill-rule:nonzero;stroke:#ff0000;stroke-width:0.3985;stroke-linecap:butt;stroke-linejoin:miter;stroke-miterlimit:10;stroke-dasharray:none;stroke-opacity:1"
       transform="matrix(1.3333333,0,0,-1.3333333,86.889333,196.23067)"
       clip-path="url(#clipPath100)" />
    <path
       id="path101"
       d="m 0,1.99255 v -3.9851"
       style="fill:none;stroke:#ff0000;stroke-width:0.3985;stroke-linecap:butt;stroke-linejoin:miter;stroke-miterlimit:10;stroke-dasharray:none;stroke-opacity:1"
       transform="matrix(0,1.3333333,1.3333333,0,390.172,169.56533)"
       clip-path="url(#clipPath102)" />
    <path
       id="path103"
       d="M 7.8051016,-8.11 H 0.63322656 l -0.2109375,2.671875 h 0.2578125 c 0.1640625,-1.8867187 0.28125,-2.3203125 2.16796874,-2.3203125 0.2109375,0 0.5507813,0 0.6445313,0.023437 0.234375,0.035156 0.2460937,0.1757813 0.2460937,0.4570313 v 6.35156245 c 0,0.41015625 0,0.57421875 -1.171875,0.57421875 h -0.421875 v 0.351563 c 0.375,-0.0234375 1.6054688,-0.0234375 2.0742188,-0.0234375 0.46875,0 1.7109375,0 2.0976562,0.0234375 V -0.3521875 H 5.8832266 c -1.171875,0 -1.171875,-0.1640625 -1.171875,-0.57421875 V -7.2779687 c 0,-0.3046875 0.023437,-0.4101563 0.2109375,-0.4570313 0.09375,-0.023437 0.4453125,-0.023437 0.6679687,-0.023437 1.8984375,0 2.0039063,0.4335938 2.1679688,2.3203125 h 0.2578125 z m 4.2861324,4.921875 c 0,-0.6445312 0,-1.125 -0.527343,-1.59375 -0.421875,-0.3867187 -0.960938,-0.5507812 -1.488282,-0.5507812 -0.9726559,0 -1.7343746,0.6445312 -1.7343746,1.4179687 0,0.3515625 0.234375,0.515625 0.5039062,0.515625 0.2929688,0 0.4921875,-0.1992187 0.4921875,-0.4921875 0,-0.4804687 -0.4335937,-0.4804687 -0.609375,-0.4804687 0.28125,-0.5039063 0.8554688,-0.7265625 1.3242189,-0.7265625 0.550781,0 1.253906,0.4570312 1.253906,1.5351562 v 0.4804688 C 8.9037344,-3.0475 8.0013906,-2.0396875 8.0013906,-1.125625 c 0,0.94921875 1.1015625,1.2421875 1.828125,1.2421875 0.7851564,0 1.3242184,-0.48046875 1.5585934,-1.0546875 0.04687,0.5625 0.410157,0.99609375 0.925782,0.99609375 0.257812,0 0.949218,-0.1640625 0.949218,-1.12499995 V -1.735 h -0.269531 v 0.6679688 c 0,0.67968745 -0.28125,0.7851562 -0.457031,0.7851562 -0.445313,0 -0.445313,-0.64453125 -0.445313,-0.8203125 z m -0.785156,1.5 c 0,1.171875 -0.867187,1.5703125 -1.3828124,1.5703125 -0.5859375,0 -1.078125,-0.43359375 -1.078125,-1.0078125 0,-1.5820312 2.0390624,-1.7226562 2.4609374,-1.7460937 z m 4.013672,-1.1015625 c 0,-1.1601562 0.480469,-2.2382812 1.40625,-2.2382812 0.09375,0 0.117187,0 0.164062,0.011719 -0.09375,0.046875 -0.292968,0.1171875 -0.292968,0.4335938 0,0.3515625 0.28125,0.4804687 0.46875,0.4804687 0.246093,0 0.480468,-0.1523437 0.480468,-0.4804687 0,-0.3515625 -0.316406,-0.6914063 -0.832031,-0.6914063 -1.019531,0 -1.371094,1.1015625 -1.441406,1.3242188 h -0.01172 v -1.3242188 l -1.59375,0.1289063 v 0.3515625 c 0.808594,0 0.902344,0.082031 0.902344,0.6679687 v 3.24609375 c 0,0.52734375 -0.128906,0.52734375 -0.902344,0.52734375 V -6.25e-4 c 0.328125,-0.0234375 0.984375,-0.0234375 1.347656,-0.0234375 0.316407,0 1.171875,0 1.441407,0.0234375 v -0.3515625 h -0.234375 c -0.878907,0 -0.902344,-0.12890625 -0.902344,-0.5625 z m 3.978516,0.6210938 c 0.5625,0.375 1.042968,0.375 1.171875,0.375 1.078125,0 1.875,-0.8085938 1.875,-1.734375 0,-0.3164063 -0.09375,-0.7734375 -0.46875,-1.1601563 0.457031,-0.4804687 1.019531,-0.4804687 1.089843,-0.4804687 0.04687,0 0.105469,0 0.152344,0.023437 -0.117187,0.046875 -0.1875,0.1757812 -0.1875,0.3046875 0,0.1640625 0.128906,0.3046875 0.316406,0.3046875 0.09375,0 0.316407,-0.058594 0.316407,-0.3164063 0,-0.2109375 -0.175782,-0.5507812 -0.585938,-0.5507812 -0.632812,0 -1.089844,0.3867187 -1.265625,0.5625 -0.351562,-0.28125 -0.773437,-0.4335938 -1.230469,-0.4335938 -1.066406,0 -1.875,0.8203125 -1.875,1.734375 0,0.6796875 0.421875,1.125 0.539063,1.2304688 -0.140625,0.1757812 -0.351563,0.5273437 -0.351563,0.9960937 0,0.69140625 0.410157,0.984375 0.503907,1.0546875 -0.550782,0.15234375 -1.089844,0.5859375 -1.089844,1.20703125 0,0.82031255 1.113281,1.50000005 2.589844,1.50000005 1.417968,0 2.601562,-0.6328125 2.601562,-1.52343755 0,-0.3046875 -0.08203,-1.0078125 -0.796875,-1.3828125 -0.609375,-0.3046875 -1.207031,-0.3046875 -2.238281,-0.3046875 -0.726563,0 -0.808594,0 -1.03125,-0.234375 -0.117188,-0.11718745 -0.222656,-0.33984375 -0.222656,-0.59765625 0,-0.1992187 0.07031,-0.3984375 0.1875,-0.5742182 z m 1.183593,0.1289062 c -1.042968,0 -1.042968,-1.2070312 -1.042968,-1.4882812 0,-0.2109375 0,-0.703125 0.199218,-1.03125 0.222657,-0.3398438 0.585938,-0.4570313 0.832032,-0.4570313 1.054687,0 1.054687,1.2070313 1.054687,1.4765625 0,0.2109375 0,0.703125 -0.199219,1.03125 -0.234375,0.3398438 -0.585937,0.46875 -0.84375,0.46875 z M 20.809984,2.2025 c -1.148437,0 -2.015625,-0.5859375 -2.015625,-1.265625 0,-0.10546875 0.02344,-0.5625 0.46875,-0.87890625 0.269532,-0.1640625 0.375,-0.1640625 1.207032,-0.1640625 0.996093,0 2.34375,0 2.34375,1.04296875 0,0.703125 -0.902344,1.265625 -2.003907,1.265625 z m 7.50586,-4.9804687 c 0.257812,0 0.28125,0 0.28125,-0.2226563 0,-1.2070312 -0.644532,-2.3320312 -2.085938,-2.3320312 -1.371094,0 -2.414062,1.2304687 -2.414062,2.71875 0,1.5703125 1.21875,2.7304687 2.542968,2.7304687 1.417969,0 1.957032,-1.2890625 1.957032,-1.5351562 0,-0.082031 -0.05859,-0.1289063 -0.128907,-0.1289063 -0.09375,0 -0.117187,0.070312 -0.140625,0.1289063 -0.316406,0.9960937 -1.113281,1.2773437 -1.617187,1.2773437 -0.503906,0 -1.710938,-0.33984375 -1.710938,-2.4023437 v -0.234375 z M 25.011156,-3.000625 c 0.09375,-1.875 1.148438,-2.0976562 1.488281,-2.0976562 1.277344,0 1.347657,1.6875 1.359375,2.0976562 z m 5.929688,-1.8046875 h 1.6875 V -5.156875 h -1.6875 v -2.1914062 h -0.257813 c -0.01172,1.125 -0.445312,2.2617187 -1.535156,2.3085937 v 0.234375 h 1.019531 v 3.328125 c 0,1.32421875 0.890625,1.59375 1.523438,1.59375 0.75,0 1.148437,-0.73828125 1.148437,-1.59375 V -2.1685937 H 32.56975 v 0.65625 c 0,0.86718745 -0.339844,1.3710937 -0.808594,1.3710937 -0.820312,0 -0.820312,-1.1132812 -0.820312,-1.3125 z m 7.737304,-3.3632812 v 0.3515625 h 0.234375 c 0.867188,0 0.902344,0.1171875 0.902344,0.5625 v 6.3398437 c 0,0.4453125 -0.03516,0.5625 -0.902344,0.5625 H 38.678148 V -6.25e-4 h 4.183594 c 1.992188,0 3.597656,-1.7929687 3.597656,-4.0078125 0,-2.3085937 -1.617187,-4.1601562 -3.597656,-4.1601562 z m 2.625,7.8164062 c -0.527343,0 -0.550781,-0.0820313 -0.550781,-0.46875 v -6.515625 c 0,-0.3984375 0.02344,-0.4804687 0.550781,-0.4804687 h 1.253907 c 0.996093,0 1.78125,0.4804687 2.273437,1.265625 0.539063,0.84375 0.539063,2.0507812 0.539063,2.53125 0,0.6679687 -0.01172,1.7929687 -0.691407,2.6835937 -0.398437,0.50390625 -1.113281,0.984375 -2.121093,0.984375 z M 51.69768,-2.7779687 c 0.257812,0 0.28125,0 0.28125,-0.2226563 0,-1.2070312 -0.644532,-2.3320312 -2.085938,-2.3320312 -1.371094,0 -2.414062,1.2304687 -2.414062,2.71875 0,1.5703125 1.21875,2.7304687 2.542968,2.7304687 1.417969,0 1.957032,-1.2890625 1.957032,-1.5351562 0,-0.082031 -0.05859,-0.1289063 -0.128907,-0.1289063 -0.09375,0 -0.117187,0.070312 -0.140625,0.1289063 -0.316406,0.9960937 -1.113281,1.2773437 -1.617187,1.2773437 -0.503906,0 -1.710938,-0.33984375 -1.710938,-2.4023437 v -0.234375 z M 48.392992,-3.000625 c 0.09375,-1.875 1.148438,-2.0976562 1.488281,-2.0976562 1.277344,0 1.347657,1.6875 1.359375,2.0976562 z m 8.800781,-1.0195312 c 0.105469,-0.2578125 0.316407,-0.7734375 1.078125,-0.7851563 V -5.156875 c -0.351562,0.023437 -0.515625,0.023437 -0.890625,0.023437 -0.246093,0 -0.421875,0 -0.972656,-0.023437 v 0.3515625 c 0.503906,0.023437 0.5625,0.3867188 0.5625,0.515625 0,0.1054688 -0.02344,0.1640625 -0.08203,0.3046875 L 55.670336,-0.90296875 54.32268,-4.26625 c -0.05859,-0.1640625 -0.07031,-0.1640625 -0.07031,-0.234375 0,-0.3046875 0.457031,-0.3046875 0.667969,-0.3046875 V -5.156875 c -0.292969,0.023437 -0.914063,0.023437 -1.242188,0.023437 -0.386718,0 -0.410156,0 -1.148437,-0.023437 v 0.3515625 c 0.667969,0 0.796875,0.046875 0.9375,0.421875 l 1.710937,4.27734375 c 0.05859,0.1640625 0.08203,0.22265625 0.222657,0.22265625 0.08203,0 0.152343,-0.0234375 0.246093,-0.22265625 z M 60.571703,-7.36 c 0,-0.3164062 -0.246094,-0.5859375 -0.574219,-0.5859375 -0.316406,0 -0.574218,0.2460938 -0.574218,0.5742188 0,0.3515625 0.28125,0.5859375 0.574218,0.5859375 0.363282,0 0.574219,-0.3164063 0.574219,-0.5742188 z m -1.640625,2.2148438 v 0.3515625 c 0.761719,0 0.867188,0.070312 0.867188,0.65625 v 3.25781245 c 0,0.52734375 -0.128907,0.52734375 -0.902344,0.52734375 V -6.25e-4 c 0.328125,-0.0234375 0.902344,-0.0234375 1.253906,-0.0234375 0.128906,0 0.820313,0 1.230469,0.0234375 v -0.3515625 c -0.773438,0 -0.832031,-0.0585938 -0.832031,-0.515625 v -4.40625 z m 7.435547,1.9570312 c 0,-0.6445312 0,-1.125 -0.527344,-1.59375 -0.421875,-0.3867187 -0.960937,-0.5507812 -1.488281,-0.5507812 -0.972656,0 -1.734375,0.6445312 -1.734375,1.4179687 0,0.3515625 0.234375,0.515625 0.503906,0.515625 0.292969,0 0.492188,-0.1992187 0.492188,-0.4921875 0,-0.4804687 -0.433594,-0.4804687 -0.609375,-0.4804687 0.28125,-0.5039063 0.855468,-0.7265625 1.324218,-0.7265625 0.550782,0 1.253907,0.4570312 1.253907,1.5351562 v 0.4804688 c -2.402344,0.035156 -3.304688,1.0429687 -3.304688,1.9570312 0,0.94921875 1.101563,1.2421875 1.828125,1.2421875 0.785156,0 1.324219,-0.48046875 1.558594,-1.0546875 0.04687,0.5625 0.410156,0.99609375 0.925781,0.99609375 0.257813,0 0.949219,-0.1640625 0.949219,-1.12499995 V -1.735 h -0.269531 v 0.6679688 c 0,0.67968745 -0.28125,0.7851562 -0.457032,0.7851562 -0.445312,0 -0.445312,-0.64453125 -0.445312,-0.8203125 z m -0.785156,1.5 c 0,1.171875 -0.867188,1.5703125 -1.382813,1.5703125 -0.585937,0 -1.078125,-0.43359375 -1.078125,-1.0078125 0,-1.5820312 2.039063,-1.7226562 2.460938,-1.7460937 z m 4.02539,-3.1171875 h 1.6875 V -5.156875 h -1.6875 v -2.1914062 h -0.257812 c -0.01172,1.125 -0.445313,2.2617187 -1.535156,2.3085937 v 0.234375 h 1.019531 v 3.328125 c 0,1.32421875 0.890625,1.59375 1.523437,1.59375 0.75,0 1.148438,-0.73828125 1.148438,-1.59375 v -0.6914062 h -0.269531 v 0.65625 c 0,0.86718745 -0.339844,1.3710937 -0.808594,1.3710937 -0.820313,0 -0.820313,-1.1132812 -0.820313,-1.3125 z M 74.229906,-7.36 c 0,-0.3164062 -0.246094,-0.5859375 -0.574219,-0.5859375 -0.316406,0 -0.574218,0.2460938 -0.574218,0.5742188 0,0.3515625 0.28125,0.5859375 0.574218,0.5859375 0.363282,0 0.574219,-0.3164063 0.574219,-0.5742188 z m -1.640625,2.2148438 v 0.3515625 c 0.761719,0 0.867188,0.070312 0.867188,0.65625 v 3.25781245 c 0,0.52734375 -0.128907,0.52734375 -0.902344,0.52734375 V -6.25e-4 c 0.328125,-0.0234375 0.902344,-0.0234375 1.253906,-0.0234375 0.128906,0 0.820313,0 1.230469,0.0234375 v -0.3515625 c -0.773438,0 -0.832031,-0.0585938 -0.832031,-0.515625 v -4.40625 z m 8.302735,2.5898437 c 0,-1.546875 -1.171875,-2.7773437 -2.554688,-2.7773437 -1.429687,0 -2.566406,1.265625 -2.566406,2.7773437 0,1.5234375 1.195312,2.671875 2.554687,2.671875 1.40625,0 2.566407,-1.171875 2.566407,-2.671875 z M 78.337328,-0.14125 c -0.445312,0 -0.984375,-0.19921875 -1.324219,-0.78515625 C 76.684984,-1.45375 76.673266,-2.1685937 76.673266,-2.6607812 c 0,-0.4570313 0,-1.1835938 0.375,-1.7226563 0.328125,-0.515625 0.855468,-0.7148437 1.277343,-0.7148437 0.46875,0 0.972657,0.2226562 1.289063,0.6914062 0.375,0.5507813 0.375,1.3007813 0.375,1.7460938 0,0.4101562 0,1.1484375 -0.316406,1.71093745 C 79.345141,-0.375625 78.794359,-0.14125 78.337328,-0.14125 Z m 8.241211,-2.765625 c 0,-1.1132812 0,-1.4414062 -0.28125,-1.828125 -0.339844,-0.46875 -0.902344,-0.5390625 -1.3125,-0.5390625 -1.160156,0 -1.605469,0.9960938 -1.710937,1.2304688 h -0.01172 v -1.2304688 l -1.617188,0.1289063 v 0.3515625 c 0.808594,0 0.902344,0.082031 0.902344,0.6679687 v 3.24609375 c 0,0.52734375 -0.128906,0.52734375 -0.902344,0.52734375 V -6.25e-4 c 0.304688,-0.0234375 0.949219,-0.0234375 1.289063,-0.0234375 0.339844,0 0.984375,0 1.300781,0.0234375 v -0.3515625 c -0.761719,0 -0.914062,0 -0.914062,-0.52734375 V -3.1060937 c 0,-1.2539063 0.832031,-1.921875 1.570312,-1.921875 0.738281,0 0.914063,0.609375 0.914063,1.3359375 v 2.81249995 c 0,0.52734375 -0.140625,0.52734375 -0.914063,0.52734375 V -6.25e-4 c 0.316406,-0.0234375 0.960938,-0.0234375 1.289063,-0.0234375 0.351562,0 0.996093,0 1.300781,0.0234375 v -0.3515625 c -0.597656,0 -0.890625,0 -0.902344,-0.3515625 z m 12.667969,-0.1523437 h -0.257813 c -0.117187,1.1953125 -0.269531,2.7070312 -2.367187,2.7070312 h -1.042969 c -0.527344,0 -0.550781,-0.0820313 -0.550781,-0.46875 v -6.421875 c 0,-0.4335937 0.02344,-0.5742187 1.066406,-0.5742187 h 0.363281 v -0.3515625 c -0.351562,0.023437 -1.40625,0.023437 -1.816406,0.023437 -0.363281,0 -1.429687,0 -1.710937,-0.023437 v 0.3515625 h 0.234375 c 0.867187,0 0.902343,0.1171875 0.902343,0.5625 v 6.3398437 c 0,0.4453125 -0.03516,0.5625 -0.902343,0.5625 H 92.930102 V -6.25e-4 h 6.011718 z m 5.085942,0.28125 c 0.25781,0 0.28125,0 0.28125,-0.2226563 0,-1.2070312 -0.64454,-2.3320312 -2.08594,-2.3320312 -1.3711,0 -2.41406,1.2304687 -2.41406,2.71875 0,1.5703125 1.21875,2.7304687 2.54296,2.7304687 1.41797,0 1.95704,-1.2890625 1.95704,-1.5351562 0,-0.082031 -0.0586,-0.1289063 -0.12891,-0.1289063 -0.0937,0 -0.11719,0.070312 -0.14063,0.1289063 -0.3164,0.9960937 -1.11328,1.2773437 -1.61718,1.2773437 -0.50391,0 -1.71094,-0.33984375 -1.71094,-2.4023437 v -0.234375 z m -3.30469,-0.2226563 c 0.0937,-1.875 1.14844,-2.0976562 1.48828,-2.0976562 1.27734,0 1.34766,1.6875 1.35937,2.0976562 z m 8.80078,-1.0195312 c 0.10547,-0.2578125 0.31641,-0.7734375 1.07812,-0.7851563 V -5.156875 c -0.35156,0.023437 -0.51562,0.023437 -0.89062,0.023437 -0.24609,0 -0.42188,0 -0.97266,-0.023437 v 0.3515625 c 0.50391,0.023437 0.5625,0.3867188 0.5625,0.515625 0,0.1054688 -0.0234,0.1640625 -0.082,0.3046875 L 108.3051,-0.90296875 106.95745,-4.26625 c -0.0586,-0.1640625 -0.0703,-0.1640625 -0.0703,-0.234375 0,-0.3046875 0.45703,-0.3046875 0.66797,-0.3046875 V -5.156875 c -0.29297,0.023437 -0.91406,0.023437 -1.24219,0.023437 -0.38671,0 -0.41015,0 -1.14843,-0.023437 v 0.3515625 c 0.66797,0 0.79687,0.046875 0.9375,0.421875 l 1.71093,4.27734375 c 0.0586,0.1640625 0.082,0.22265625 0.22266,0.22265625 0.082,0 0.15234,-0.0234375 0.24609,-0.22265625 z m 5.56348,1.2421875 c 0.25781,0 0.28125,0 0.28125,-0.2226563 0,-1.2070312 -0.64454,-2.3320312 -2.08594,-2.3320312 -1.3711,0 -2.41406,1.2304687 -2.41406,2.71875 0,1.5703125 1.21875,2.7304687 2.54296,2.7304687 1.41797,0 1.95704,-1.2890625 1.95704,-1.5351562 0,-0.082031 -0.0586,-0.1289063 -0.12891,-0.1289063 -0.0937,0 -0.11719,0.070312 -0.14063,0.1289063 -0.3164,0.9960937 -1.11328,1.2773437 -1.61718,1.2773437 -0.50391,0 -1.71094,-0.33984375 -1.71094,-2.4023437 v -0.234375 z m -3.30469,-0.2226563 c 0.0937,-1.875 1.14844,-2.0976562 1.48828,-2.0976562 1.27734,0 1.34766,1.6875 1.35937,2.0976562 z m 5.97656,-5.296875 -1.65234,0.1289063 v 0.3515625 c 0.80859,0 0.90234,0.082031 0.90234,0.6679687 v 6.26953125 c 0,0.52734375 -0.12891,0.52734375 -0.90234,0.52734375 V -6.25e-4 c 0.32812,-0.0234375 0.91406,-0.0234375 1.27734,-0.0234375 0.35156,0 0.94922,0 1.28906,0.0234375 v -0.3515625 c -0.76172,0 -0.91406,0 -0.91406,-0.52734375 z m 0,0"
       style="fill:#000000;fill-opacity:1;fill-rule:nonzero;stroke:none"
       aria-label="TargetDeviationLevel"
       transform="matrix(1.3333333,0,0,1.3333333,155.69867,251.31333)" />
    <path
       id="path104"
       d="m 5.0387266,-4.0672187 c 1.1835937,-0.2695313 2.109375,-1.03125 2.109375,-1.9453125 0,-1.1601563 -1.3476563,-2.15625 -3.0703125,-2.15625 H 0.50357031 v 0.3515625 h 0.234375 c 0.86718749,0 0.90234379,0.1171875 0.90234379,0.5625 v 6.3398437 c 0,0.4453125 -0.035156,0.5625 -0.90234379,0.5625 h -0.234375 V -8.125e-4 C 0.77310156,-0.02425 1.7574766,-0.02425 2.1090391,-0.02425 c 0.3398437,0 1.3359375,0 1.6054687,0.0234375 V -0.352375 h -0.234375 c -0.8671875,0 -0.9023437,-0.1171875 -0.9023437,-0.5625 v -3.0585937 h 1.3945312 c 0.4570313,0 0.9023438,0.140625 1.2304688,0.46875 0.3984375,0.4570312 0.3984375,0.703125 0.3984375,1.5351562 0,0.9375 0,1.25390625 0.5273437,1.76953125 0.1875,0.17578125 0.6796875,0.4453125 1.359375,0.4453125 0.9257813,0 1.078125,-1.03125 1.078125,-1.28906245 0,-0.070312 0,-0.1757813 -0.1289062,-0.1757813 -0.1171875,0 -0.1171875,0.070312 -0.1289063,0.1875 -0.058594,0.71484375 -0.4101562,1.04296875 -0.7851562,1.04296875 -0.5507813,0 -0.6796875,-0.5625 -0.7734375,-1.19531245 -0.011719,-0.082031 -0.082031,-0.5976563 -0.1171875,-0.890625 C 6.5504453,-2.6726875 6.5035703,-3.0594062 6.1402891,-3.4344062 6.0113828,-3.5633125 5.7066953,-3.8914375 5.0387266,-4.0672187 Z M 3.9254453,-4.2078437 H 2.5777891 V -7.33675 c 0,-0.28125 0,-0.421875 0.2578125,-0.46875 0.1054687,-0.011719 0.46875,-0.011719 0.703125,-0.011719 0.9726562,0 2.4960937,0 2.4960937,1.8046875 0,1.0429687 -0.5625,1.8046875 -2.109375,1.8046878 z m 8.3232417,-0.9375 v 0.3515625 c 0.808594,0 0.914063,0.082031 0.914063,0.6679687 v 2.1445313 c 0,1.00781245 -0.539063,1.8632812 -1.441406,1.8632812 -0.972657,0 -1.042969,-0.5625 -1.042969,-1.1953125 V -5.27425 l -1.6757813,0.1289063 v 0.3515625 c 0.9023438,0 0.9023438,0.035156 0.9023438,1.1015625 V -1.89925 c 0,0.7382813 0,1.171875 0.3632815,1.55859375 0.28125,0.31640625 0.773437,0.45703125 1.382812,0.45703125 0.199219,0 0.585938,0 0.996094,-0.33984375 0.339844,-0.28125 0.539062,-0.73828125 0.539062,-0.73828125 V 0.116375 L 14.838531,-8.125e-4 V -0.352375 c -0.808594,0 -0.902344,-0.0820313 -0.902344,-0.6679687 V -5.27425 Z m 8.191407,2.2382812 c 0,-1.1132812 0,-1.4414062 -0.28125,-1.828125 C 19.819,-5.2039375 19.2565,-5.27425 18.846344,-5.27425 c -1.160157,0 -1.605469,0.9960938 -1.710938,1.2304688 h -0.01172 V -5.27425 L 15.5065,-5.1453437 v 0.3515625 c 0.808594,0 0.902344,0.082031 0.902344,0.6679687 v 3.24609375 c 0,0.52734375 -0.128907,0.52734375 -0.902344,0.52734375 V -8.125e-4 C 15.811187,-0.02425 16.455719,-0.02425 16.795562,-0.02425 c 0.339844,0 0.984375,0 1.300782,0.0234375 V -0.352375 c -0.761719,0 -0.914063,0 -0.914063,-0.52734375 V -3.1062812 c 0,-1.2539063 0.832031,-1.921875 1.570313,-1.921875 0.738281,0 0.914062,0.609375 0.914062,1.3359375 v 2.81249995 c 0,0.52734375 -0.140625,0.52734375 -0.914062,0.52734375 V -8.125e-4 C 19.069,-0.02425 19.713531,-0.02425 20.041656,-0.02425 c 0.351563,0 0.996094,0 1.300781,0.0234375 V -0.352375 c -0.597656,0 -0.890625,0 -0.902343,-0.3515625 z M 23.302398,-4.8055 h 1.6875 v -0.3515625 h -1.6875 v -2.1914062 h -0.257812 c -0.01172,1.125 -0.445313,2.2617187 -1.535156,2.3085937 V -4.8055 h 1.019531 v 3.328125 c 0,1.32421875 0.890625,1.59375 1.523437,1.59375 0.75,0 1.148438,-0.73828125 1.148438,-1.59375 v -0.6914062 h -0.269531 v 0.65625 c 0,0.86718745 -0.339844,1.3710937 -0.808594,1.3710937 -0.820313,0 -0.820313,-1.1132812 -0.820313,-1.3125 z m 4.623047,-2.5546875 c 0,-0.3164062 -0.246093,-0.5859375 -0.574218,-0.5859375 -0.316407,0 -0.574219,0.2460938 -0.574219,0.5742188 0,0.3515625 0.28125,0.5859375 0.574219,0.5859375 0.363281,0 0.574218,-0.3164063 0.574218,-0.5742188 z m -1.640625,2.2148438 v 0.3515625 c 0.761719,0 0.867188,0.070312 0.867188,0.65625 v 3.25781245 c 0,0.52734375 -0.128906,0.52734375 -0.902344,0.52734375 V -8.125e-4 C 26.577789,-0.02425 27.152008,-0.02425 27.50357,-0.02425 c 0.128907,0 0.820313,0 1.230469,0.0234375 V -0.352375 c -0.773437,0 -0.832031,-0.0585938 -0.832031,-0.515625 v -4.40625 z m 11.384766,2.2382812 c 0,-1.1132812 0,-1.4414062 -0.269531,-1.828125 -0.351563,-0.46875 -0.914063,-0.5390625 -1.3125,-0.5390625 -0.996094,0 -1.5,0.7148438 -1.6875,1.1835938 -0.164063,-0.9140625 -0.808594,-1.1835938 -1.570313,-1.1835938 -1.160156,0 -1.605469,0.9960938 -1.710937,1.2304688 h -0.01172 V -5.27425 l -1.617188,0.1289063 v 0.3515625 c 0.808594,0 0.902344,0.082031 0.902344,0.6679687 v 3.24609375 c 0,0.52734375 -0.128906,0.52734375 -0.902344,0.52734375 v 0.3515625 c 0.304689,-0.0234375 0.94922,-0.0234375 1.289064,-0.0234375 0.339844,0 0.984375,0 1.300781,0.0234375 V -0.352375 c -0.761719,0 -0.914062,0 -0.914062,-0.52734375 V -3.1062812 c 0,-1.2539063 0.832031,-1.921875 1.570312,-1.921875 0.738281,0 0.914063,0.609375 0.914063,1.3359375 v 2.81249995 c 0,0.52734375 -0.140625,0.52734375 -0.914063,0.52734375 V -8.125e-4 C 33.052398,-0.02425 33.69693,-0.02425 34.025055,-0.02425 c 0.351562,0 0.996093,0 1.300781,0.0234375 V -0.352375 c -0.761719,0 -0.902344,0 -0.902344,-0.52734375 V -3.1062812 c 0,-1.2539063 0.820313,-1.921875 1.570313,-1.921875 0.738281,0 0.902343,0.609375 0.902343,1.3359375 v 2.81249995 c 0,0.52734375 -0.128906,0.52734375 -0.902343,0.52734375 V -8.125e-4 C 36.298492,-0.02425 36.943023,-0.02425 37.282867,-0.02425 c 0.339844,0 0.984375,0 1.300781,0.0234375 V -0.352375 c -0.597656,0 -0.902343,0 -0.914062,-0.3515625 z m 5.771484,0.1289063 c 0.257813,0 0.28125,0 0.28125,-0.2226563 0,-1.2070312 -0.644531,-2.3320312 -2.085937,-2.3320312 -1.371094,0 -2.414063,1.2304687 -2.414063,2.71875 0,1.5703125 1.21875,2.7304687 2.542969,2.7304687 1.417969,0 1.957031,-1.2890625 1.957031,-1.5351562 0,-0.082031 -0.05859,-0.1289063 -0.128906,-0.1289063 -0.09375,0 -0.117187,0.070312 -0.140625,0.1289063 -0.316406,0.9960937 -1.113281,1.2773437 -1.617187,1.2773437 -0.503907,0 -1.710938,-0.33984375 -1.710938,-2.4023437 v -0.234375 z m -3.304687,-0.2226563 c 0.09375,-1.875 1.148437,-2.0976562 1.488281,-2.0976562 1.277344,0 1.347656,1.6875 1.359375,2.0976562 z m 12.492187,5.90625 c 0,-0.035156 0,-0.058594 -0.210937,-0.2695312 C 51.22232,1.428875 50.554352,-0.539875 50.554352,-2.977375 c 0,-2.3203125 0.5625,-4.3125 1.945312,-5.7304687 0.128906,-0.1054688 0.128906,-0.1289063 0.128906,-0.1640625 0,-0.070312 -0.07031,-0.09375 -0.117187,-0.09375 -0.152344,0 -1.136719,0.8554687 -1.722656,2.0273437 -0.609375,1.2070313 -0.878907,2.4960938 -0.878907,3.9609375 0,1.0664063 0.164063,2.484375 0.785157,3.76171875 0.703125,1.44140625 1.6875,2.21484375 1.816406,2.21484375 0.04687,0 0.117187,-0.023437 0.117187,-0.09375 z m 4.584961,-7.9570312 c 0,-0.2226563 0,-0.28125 -0.128906,-0.28125 -0.09375,0 -0.316406,0.2695312 -0.398438,0.375 -0.375,-0.3046875 -0.75,-0.375 -1.125,-0.375 -1.453125,0 -1.875,0.7851562 -1.875,1.4414062 0,0.140625 0,0.5507813 0.445313,0.9726563 0.386719,0.3398437 0.796875,0.421875 1.347656,0.5273437 0.65625,0.1289063 0.808594,0.1640625 1.113281,0.4101563 0.210938,0.1757812 0.363282,0.4335937 0.363282,0.7734375 0,0.51562495 -0.292969,1.0898437 -1.347657,1.0898437 -0.785156,0 -1.359375,-0.45703125 -1.628906,-1.6523437 -0.04687,-0.2109375 -0.04687,-0.2226563 -0.05859,-0.234375 -0.02344,-0.046875 -0.07031,-0.046875 -0.105468,-0.046875 -0.128907,0 -0.128907,0.058594 -0.128907,0.2695312 v 1.62890625 c 0,0.2109375 0,0.26953125 0.117188,0.26953125 0.05859,0 0.07031,-0.0117188 0.269531,-0.2578125 0.05859,-0.0820313 0.05859,-0.10546875 0.246094,-0.3046875 0.445312,0.5625 1.101562,0.5625 1.300781,0.5625 1.253906,0 1.875,-0.69140625 1.875,-1.640625 0,-0.6445312 -0.398437,-1.0195312 -0.503906,-1.125 -0.433594,-0.375 -0.75,-0.4453125 -1.535156,-0.5859375 -0.363282,-0.082031 -1.230469,-0.2460937 -1.230469,-0.9609375 0,-0.375 0.246094,-0.9257812 1.324219,-0.9257812 1.300781,0 1.371093,1.1132812 1.394531,1.4882812 0.01172,0.09375 0.09375,0.09375 0.128906,0.09375 0.140625,0 0.140625,-0.058594 0.140625,-0.2695312 z m 4.066406,2.0742187 c 0,-0.9140625 -0.128906,-2.390625 -0.796875,-3.7734375 -0.703125,-1.4414062 -1.675781,-2.2148437 -1.816406,-2.2148437 -0.04687,0 -0.105469,0.023437 -0.105469,0.09375 0,0.035156 0,0.058594 0.199219,0.2695312 1.195313,1.2070313 1.875,3.1757813 1.875,5.6132813 0,2.32031245 -0.5625,4.3125 -1.957031,5.7304687 -0.117188,0.1054688 -0.117188,0.1289063 -0.117188,0.1640625 0,0.070312 0.05859,0.09375 0.105469,0.09375 0.164063,0 1.136719,-0.8554687 1.722656,-2.02734375 0.609375,-1.21875 0.890625,-2.51953125 0.890625,-3.94921875 z m 0,0"
       style="fill:#000000;fill-opacity:1;fill-rule:nonzero;stroke:none"
       aria-label="Runtime(s)"
       transform="matrix(0,-1.3333333,1.3333333,0,17.157333,144.92533)" />
    <path
       id="path105"
       d="M 261.19452,38.0336 H 361.7647 V 69.51169 H 261.19452 Z"
       style="fill:#ffffff;fill-opacity:1;fill-rule:nonzero;stroke:none"
       transform="matrix(1.3333333,0,0,-1.3333333,86.889333,196.23067)" />
    <path
       id="path106"
       d="m -1.49442,-2.34117 h 2.98883 v 9.36493 h -2.98883 z m 5.97767,0 H 7.47208 V 4.68256 H 4.48325 Z"
       style="fill:#b3b3ff;fill-opacity:1;fill-rule:nonzero;stroke:#0000ff;stroke-width:0.3985;stroke-linecap:butt;stroke-linejoin:miter;stroke-miterlimit:10;stroke-dasharray:none;stroke-opacity:1"
       transform="matrix(1.3333333,0,0,-1.3333333,441.388,115.83733)" />
    <path
       id="path107"
       d="m 5.0159844,-4.8033906 c 0,-0.1875 0,-0.4570313 -0.328125,-0.4570313 -0.2929688,0 -0.3632813,0.28125 -0.3632813,0.2929688 -0.4804687,-0.2929688 -1.0195312,-0.2929688 -1.265625,-0.2929688 -1.9453125,0 -2.21484372,0.9960938 -2.21484372,1.40625 0,0.4804688 0.29296872,0.8203125 0.70312502,1.0429688 0.375,0.2226562 0.7265625,0.28125 1.6992187,0.4335937 0.46875,0.082031 1.4296875,0.234375 1.4296875,0.9023438 0,0.4335937 -0.4101562,0.85546873 -1.5234375,0.85546873 -0.7617187,0 -1.265625,-0.3046875 -1.5117187,-1.16015623 -0.058594,-0.1640625 -0.09375,-0.2929688 -0.3984375,-0.2929688 -0.39843752,0 -0.39843752,0.2226563 -0.39843752,0.4570313 v 1.23046873 c 0,0.19921875 0,0.45703125 0.33984372,0.45703125 0.140625,0 0.2460938,0 0.4335938,-0.4921875 0.5507812,0.45703125 1.171875,0.4921875 1.5351562,0.4921875 2.2148438,0 2.2148438,-1.42968748 2.2148438,-1.54687498 0,-1.2539063 -1.4765625,-1.5 -2.0507813,-1.5820313 -1.0546875,-0.1757812 -1.7695312,-0.3046875 -1.7695312,-0.796875 0,-0.328125 0.3632812,-0.7148437 1.4882812,-0.7148437 1.1367188,0 1.1835938,0.5390625 1.2070313,0.8554687 0.023437,0.234375 0.2460937,0.2695313 0.3867187,0.2695313 0.3867188,0 0.3867188,-0.2109375 0.3867188,-0.4570313 z m 6.5859376,3.5039062 c 0,-0.3164062 -0.292969,-0.3164062 -0.398438,-0.3164062 -0.269531,0 -0.316406,0.09375 -0.375,0.2695312 -0.269531,0.65625003 -0.8554684,0.72656253 -1.1367184,0.72656253 -1.0195312,0 -1.875,-0.84375003 -1.875,-1.95703123 0,-0.609375 0.3398438,-1.9921875 1.9101563,-1.9921875 0.3281251,0 0.5742191,0.023437 0.6796871,0.035156 0.08203,0.023437 0.09375,0.035156 0.09375,0.1054688 0.03516,0.4804687 0.410157,0.4921875 0.480469,0.4921875 0.269531,0 0.492188,-0.1757813 0.492188,-0.4921875 0,-0.8320313 -1.207032,-0.8320313 -1.7343754,-0.8320313 -2.0390625,0 -2.7070312,1.6757813 -2.7070312,2.6835938 0,1.453125 1.1132812,2.64843748 2.5546875,2.64843748 1.5937501,0 2.0156251,-1.18359378 2.0156251,-1.37109358 z m 5.648437,-2.0976562 c 0,-0.9023438 -0.679687,-1.8632813 -2.296875,-1.8632813 -0.492187,0 -1.652343,0 -1.652343,0.8320313 0,0.3164062 0.222656,0.4921875 0.480468,0.4921875 0.08203,0 0.46875,-0.023437 0.480469,-0.515625 0,-0.070312 0.01172,-0.082031 0.269531,-0.1054688 0.140625,-0.011719 0.292969,-0.011719 0.433594,-0.011719 0.28125,0 0.691406,0 1.078125,0.3046875 0.433594,0.328125 0.433594,0.6679687 0.433594,1.0195312 -0.703125,0.023437 -1.394531,0.070312 -2.144531,0.3046875 -0.597657,0.1992188 -1.359375,0.6328125 -1.359375,1.4414063 0,0.85546873 0.75,1.57031248 1.863281,1.57031248 0.386719,0 1.125,-0.05859375 1.746094,-0.4921875 0.246093,0.3984375 0.84375,0.421875 1.289062,0.421875 0.292969,0 0.574219,0 0.574219,-0.3515625 0,-0.33984375 -0.304688,-0.33984375 -0.480469,-0.33984375 -0.304687,0 -0.539062,-0.0234375 -0.714844,-0.09375 z m -0.773437,1.8164062 c 0,0.28125 0,0.5273438 -0.492188,0.76171878 -0.421875,0.19921875 -0.972656,0.19921875 -1.019531,0.19921875 -0.703125,0 -1.21875,-0.38671873 -1.21875,-0.87890623 0,-0.703125 1.289063,-1.1015625 2.730469,-1.1015625 z m 5.449219,-5.2265625 c 0,-0.375 -0.07031,-0.4921875 -0.480469,-0.4921875 h -1.757813 c -0.164062,0 -0.480468,0 -0.480468,0.3398438 0,0.3515625 0.316406,0.3515625 0.480468,0.3515625 h 1.464844 v 5.91796873 h -1.464844 c -0.164062,0 -0.480468,0 -0.480468,0.33984375 0,0.3515625 0.316406,0.3515625 0.480468,0.3515625 h 3.691407 c 0.175781,0 0.480468,0 0.480468,-0.3515625 0,-0.33984375 -0.304687,-0.33984375 -0.480468,-0.33984375 h -1.453125 z m 7.628906,3.4101563 c 0,-0.9023438 -0.679688,-1.8632813 -2.296875,-1.8632813 -0.492188,0 -1.652344,0 -1.652344,0.8320313 0,0.3164062 0.222656,0.4921875 0.480469,0.4921875 0.08203,0 0.46875,-0.023437 0.480469,-0.515625 0,-0.070312 0.01172,-0.082031 0.269531,-0.1054688 0.140625,-0.011719 0.292969,-0.011719 0.433594,-0.011719 0.28125,0 0.691406,0 1.078125,0.3046875 0.433593,0.328125 0.433593,0.6679687 0.433593,1.0195312 -0.703125,0.023437 -1.394531,0.070312 -2.144531,0.3046875 -0.597656,0.1992188 -1.359375,0.6328125 -1.359375,1.4414063 0,0.85546873 0.75,1.57031248 1.863281,1.57031248 0.386719,0 1.125,-0.05859375 1.746094,-0.4921875 0.246094,0.3984375 0.84375,0.421875 1.289063,0.421875 0.292968,0 0.574218,0 0.574218,-0.3515625 0,-0.33984375 -0.304687,-0.33984375 -0.480468,-0.33984375 -0.304688,0 -0.539063,-0.0234375 -0.714844,-0.09375 z m -0.773438,1.8164062 c 0,0.28125 0,0.5273438 -0.492187,0.76171878 -0.421875,0.19921875 -0.972656,0.19921875 -1.019531,0.19921875 -0.703125,0 -1.21875,-0.38671873 -1.21875,-0.87890623 0,-0.703125 1.289062,-1.1015625 2.730468,-1.1015625 z m 4.558594,-0.6796875 c 0,-1.4179687 1.007813,-2.2734375 2.027344,-2.2734375 0.05859,0 0.128906,0 0.1875,0.011719 0.03516,0.4335937 0.375,0.46875 0.457031,0.46875 0.269531,0 0.46875,-0.1992188 0.46875,-0.46875 0,-0.5039063 -0.503906,-0.703125 -1.101562,-0.703125 -0.808594,0 -1.488282,0.3632812 -2.039063,1.03125 v -0.46875 c 0,-0.3632813 -0.07031,-0.4921875 -0.46875,-0.4921875 h -1.207031 c -0.175781,0 -0.480469,0 -0.480469,0.3515625 0,0.3515625 0.304688,0.3515625 0.480469,0.3515625 h 0.902344 v 3.76171873 h -0.902344 c -0.175781,0 -0.480469,0 -0.480469,0.33984375 0,0.3515625 0.304688,0.3515625 0.480469,0.3515625 h 2.929687 c 0.175782,0 0.480469,0 0.480469,-0.3515625 0,-0.33984375 -0.304687,-0.33984375 -0.480469,-0.33984375 h -1.253906 z m 0,0"
       style="fill:#000000;fill-opacity:1;fill-rule:nonzero;stroke:none"
       aria-label="scalar"
       transform="matrix(1.3333333,0,0,1.3333333,458.25733,119.53733)" />
    <path
       id="path108"
       d="M 0,0 H 3.691"
       style="fill:none;stroke:#000000;stroke-width:0.398;stroke-linecap:butt;stroke-linejoin:miter;stroke-miterlimit:10;stroke-dasharray:none;stroke-opacity:1"
       transform="matrix(1.3333333,0,0,-1.3333333,508.45733,119.272)" />
    <path
       id="path109"
       d="m 1.9220547,-6.8072969 c 0,-0.375 -0.070312,-0.4921875 -0.4804688,-0.4921875 H 0.65642969 c -0.1640625,0 -0.48046875,0 -0.48046875,0.3398438 0,0.3515625 0.31640625,0.3515625 0.48046875,0.3515625 H 1.1486172 v 6.11718748 c 0,0.22265625 0,0.4921875 0.3984375,0.4921875 0.375,0 0.375,-0.24609375 0.375,-0.59765625 0.2929687,0.328125 0.7265625,0.66796875 1.40625,0.66796875 1.265625,0 2.3789062,-1.13671878 2.3789062,-2.64843748 0,-1.4765625 -1.0078125,-2.6484375 -2.25,-2.6484375 -0.8789062,0 -1.4296875,0.5273437 -1.5351562,0.6445312 z m 0,3.6328125 c 0,-0.6796875 0.6679687,-1.359375 1.453125,-1.359375 0.8554687,0 1.546875,0.8789063 1.546875,1.9570313 0,1.1484375 -0.8085938,1.95703123 -1.6640625,1.95703123 -0.890625,0 -1.3359375,-1.01953123 -1.3359375,-1.61718753 z m 7.6992187,-3.6328125 c 0,-0.375 -0.070312,-0.4921875 -0.4804687,-0.4921875 H 7.3829922 c -0.1640625,0 -0.4804688,0 -0.4804688,0.3398438 0,0.3515625 0.3164063,0.3515625 0.4804688,0.3515625 h 1.4648437 v 5.91796873 H 7.3829922 c -0.1640625,0 -0.4804688,0 -0.4804688,0.33984375 0,0.3515625 0.3164063,0.3515625 0.4804688,0.3515625 h 3.6914058 c 0.175782,0 0.480469,0 0.480469,-0.3515625 0,-0.33984375 -0.304687,-0.33984375 -0.480469,-0.33984375 H 9.6212734 Z m 8.1328126,4.2304688 c 0,-1.5 -1.089844,-2.6835938 -2.378906,-2.6835938 -1.289063,0 -2.378907,1.1835938 -2.378907,2.6835938 0,1.5 1.101563,2.64843748 2.378907,2.64843748 1.277343,0 2.378906,-1.14843748 2.378906,-2.64843748 z m -2.378906,1.95703123 c -0.855469,0 -1.605469,-0.91406253 -1.605469,-2.03906253 0,-1.1132812 0.773437,-1.9101562 1.605469,-1.9101562 0.84375,0 1.605468,0.796875 1.605468,1.9101562 0,1.1367188 -0.738281,2.03906253 -1.605468,2.03906253 z m 8.53125,-0.67968753 c 0,-0.3164062 -0.292969,-0.3164062 -0.398438,-0.3164062 -0.269531,0 -0.316406,0.09375 -0.375,0.2695312 -0.269531,0.65625003 -0.855469,0.72656253 -1.136719,0.72656253 -1.019531,0 -1.875,-0.84375003 -1.875,-1.95703123 0,-0.609375 0.339844,-1.9921875 1.910157,-1.9921875 0.328125,0 0.574218,0.023437 0.679687,0.035156 0.08203,0.023437 0.09375,0.035156 0.09375,0.1054688 0.03516,0.4804687 0.410156,0.4921875 0.480469,0.4921875 0.269531,0 0.492187,-0.1757813 0.492187,-0.4921875 0,-0.8320313 -1.207031,-0.8320313 -1.734375,-0.8320313 -2.039062,0 -2.707031,1.6757813 -2.707031,2.6835938 0,1.453125 1.113281,2.64843748 2.554688,2.64843748 1.59375,0 2.015625,-1.18359378 2.015625,-1.37109358 z m 4.078125,-1.7460937 1.476562,-1.40625 h 0.363281 c 0.164063,0 0.480469,0 0.480469,-0.3515625 0,-0.3515625 -0.316406,-0.3515625 -0.480469,-0.3515625 h -1.746093 c -0.164063,0 -0.492188,0 -0.492188,0.3515625 0,0.3515625 0.328125,0.3515625 0.492188,0.3515625 h 0.421875 l -1.945313,1.8398437 v -4.1953125 c 0,-0.375 -0.07031,-0.4921875 -0.480469,-0.4921875 h -0.726562 c -0.164063,0 -0.492188,0 -0.492188,0.3398438 0,0.3515625 0.328125,0.3515625 0.492188,0.3515625 h 0.539062 v 5.91796873 h -0.539062 c -0.164063,0 -0.492188,0 -0.492188,0.33984375 0,0.3515625 0.328125,0.3515625 0.492188,0.3515625 h 1.746094 c 0.164062,0 0.492187,0 0.492187,-0.3515625 0,-0.33984375 -0.328125,-0.33984375 -0.492187,-0.33984375 H 26.554867 V -1.6979219 l 0.9375,-0.8789062 1.417969,1.88671873 c -0.375,0 -0.667969,0 -0.667969,0.33984375 0,0.3515625 0.328125,0.3515625 0.492188,0.3515625 h 1.335937 c 0.164063,0 0.480469,0 0.480469,-0.3515625 0,-0.33984375 -0.316406,-0.33984375 -0.480469,-0.33984375 h -0.316406 z m 7.792968,-1.7578125 c 0,-0.1875 0,-0.4570313 -0.328125,-0.4570313 -0.292968,0 -0.363281,0.28125 -0.363281,0.2929688 -0.480469,-0.2929688 -1.019531,-0.2929688 -1.265625,-0.2929688 -1.945312,0 -2.214844,0.9960938 -2.214844,1.40625 0,0.4804688 0.292969,0.8203125 0.703125,1.0429688 0.375,0.2226562 0.726563,0.28125 1.699219,0.4335937 0.46875,0.082031 1.429688,0.234375 1.429688,0.9023438 0,0.4335937 -0.410157,0.85546873 -1.523438,0.85546873 -0.761719,0 -1.265625,-0.3046875 -1.511719,-1.16015623 -0.05859,-0.1640625 -0.09375,-0.2929688 -0.398437,-0.2929688 -0.398438,0 -0.398438,0.2226563 -0.398438,0.4570313 v 1.23046873 c 0,0.19921875 0,0.45703125 0.339844,0.45703125 0.140625,0 0.246094,0 0.433594,-0.4921875 0.550781,0.45703125 1.171875,0.4921875 1.535156,0.4921875 2.214844,0 2.214844,-1.42968748 2.214844,-1.54687498 0,-1.2539063 -1.476563,-1.5 -2.050781,-1.5820313 -1.054688,-0.1757812 -1.769532,-0.3046875 -1.769532,-0.796875 0,-0.328125 0.363282,-0.7148437 1.488282,-0.7148437 1.136718,0 1.183593,0.5390625 1.207031,0.8554687 0.02344,0.234375 0.246094,0.2695313 0.386719,0.2695313 0.386718,0 0.386718,-0.2109375 0.386718,-0.4570313 z m 0,0"
       style="fill:#000000;fill-opacity:1;fill-rule:nonzero;stroke:none"
       aria-label="blocks"
       transform="matrix(1.3333333,0,0,1.3333333,513.37867,119.53733)" />
    <path
       id="path110"
       d="m -1.49442,-2.34117 h 2.98883 v 9.36493 h -2.98883 z m 5.97767,0 H 7.47208 V 4.68256 H 4.48325 Z"
       style="fill:#ffb3b3;fill-opacity:1;fill-rule:nonzero;stroke:#ff0000;stroke-width:0.3985;stroke-linecap:butt;stroke-linejoin:miter;stroke-miterlimit:10;stroke-dasharray:none;stroke-opacity:1"
       transform="matrix(1.3333333,0,0,-1.3333333,441.388,134.16533)" />
    <path
       id="path111"
       d="m 5.2620781,-2.5298594 c 0.234375,0 0.5507813,0 0.5507813,-0.3515625 0,-0.3398437 -0.328125,-0.3398437 -0.4921875,-0.3398437 H 3.9847344 c -0.1757813,0 -0.4921875,0 -0.4921875,0.3398437 0,0.3515625 0.3164062,0.3515625 0.4921875,0.3515625 h 0.4804687 c -0.058594,0.7265625 -0.375,1.98046878 -1.359375,1.98046878 -0.9609375,0 -1.8867187,-1.30078128 -1.8867187,-3.09374998 0,-1.8398438 0.9609375,-3.1054688 1.8984375,-3.1054688 0.5742187,0 1.2070312,0.4453125 1.3710937,1.640625 0.035156,0.3046875 0.2578125,0.3046875 0.375,0.3046875 0.3984375,0 0.3984375,-0.2109375 0.3984375,-0.4570312 v -1.734375 c 0,-0.1875 0,-0.4453125 -0.3398437,-0.4453125 -0.1992188,0 -0.2695313,0.1289062 -0.3046875,0.1875 l -0.1640625,0.375 c -0.3867188,-0.3515625 -0.8671875,-0.5625 -1.3945313,-0.5625 -1.40625,0 -2.61328122,1.6054687 -2.61328122,3.7851562 0,2.2148438 1.21875002,3.79687503 2.61328122,3.79687503 0.515625,0 1.0195313,-0.2109375 1.4296875,-0.65625 0,0.31640625 0,0.5390625 0.3867188,0.5390625 0.3867187,0 0.3867187,-0.24609375 0.3867187,-0.48046875 z m 6.3398439,-0.046875 c 0,-1.5 -1.089844,-2.6835937 -2.3789064,-2.6835937 -1.2890625,0 -2.3789062,1.1835937 -2.3789062,2.6835937 0,1.5 1.1015625,2.64843753 2.3789062,2.64843753 1.2773434,0 2.3789064,-1.14843753 2.3789064,-2.64843753 z m -2.3789064,1.95703128 c -0.8554687,0 -1.6054687,-0.91406248 -1.6054687,-2.03906248 0,-1.1132813 0.7734375,-1.9101563 1.6054687,-1.9101563 0.8437504,0 1.6054684,0.796875 1.6054684,1.9101563 0,1.1367187 -0.738281,2.03906248 -1.6054684,2.03906248 z M 13.090203,-7.2993906 c -0.164062,0 -0.46875,0 -0.46875,0.3398437 0,0.3515625 0.316406,0.3515625 0.480469,0.3515625 h 0.292969 v 5.91796878 h -0.292969 c -0.164063,0 -0.480469,0 -0.480469,0.33984375 0,0.3515625 0.316406,0.3515625 0.46875,0.3515625 h 2.835938 c 1.324218,0 2.027343,-1.05468753 2.027343,-1.99218753 0,-0.8554687 -0.585937,-1.6289062 -1.523437,-1.828125 0.597656,-0.1992187 1.277344,-0.7734375 1.277344,-1.6289062 0,-0.8789063 -0.703125,-1.8515625 -2.015625,-1.8515625 z m 1.078125,3.1523437 v -2.4609375 h 1.488281 c 0.984375,0 1.277344,0.7382813 1.277344,1.171875 0,0.5625 -0.46875,1.2890625 -1.476562,1.2890625 z m 0,3.45703128 V -3.4556406 h 1.570313 c 1.207031,0 1.441406,1.03125 1.441406,1.4414062 0,0.5859375 -0.457031,1.32421878 -1.511719,1.32421878 z m 7.757813,-6.11718748 c 0,-0.375 -0.07031,-0.4921875 -0.480469,-0.4921875 h -1.757813 c -0.164062,0 -0.480468,0 -0.480468,0.3398437 0,0.3515625 0.316406,0.3515625 0.480468,0.3515625 h 1.464844 v 5.91796878 h -1.464844 c -0.164062,0 -0.480468,0 -0.480468,0.33984375 0,0.3515625 0.316406,0.3515625 0.480468,0.3515625 h 3.691407 c 0.175781,0 0.480468,0 0.480468,-0.3515625 0,-0.33984375 -0.304687,-0.33984375 -0.480468,-0.33984375 h -1.453125 z m 8.132812,4.2304687 c 0,-1.5 -1.089844,-2.6835937 -2.378906,-2.6835937 -1.289063,0 -2.378906,1.1835937 -2.378906,2.6835937 0,1.5 1.101562,2.64843753 2.378906,2.64843753 1.277344,0 2.378906,-1.14843753 2.378906,-2.64843753 z m -2.378906,1.95703128 c -0.855469,0 -1.605469,-0.91406248 -1.605469,-2.03906248 0,-1.1132813 0.773438,-1.9101563 1.605469,-1.9101563 0.84375,0 1.605469,0.796875 1.605469,1.9101563 0,1.1367187 -0.738282,2.03906248 -1.605469,2.03906248 z m 8.53125,-0.67968748 c 0,-0.3164063 -0.292969,-0.3164063 -0.398438,-0.3164063 -0.269531,0 -0.316406,0.09375 -0.375,0.2695313 -0.269531,0.65624998 -0.855468,0.72656248 -1.136718,0.72656248 -1.019532,0 -1.875,-0.84374998 -1.875,-1.95703128 0,-0.609375 0.339843,-1.9921875 1.910156,-1.9921875 0.328125,0 0.574219,0.023437 0.679687,0.035156 0.08203,0.023437 0.09375,0.035156 0.09375,0.1054687 0.03516,0.4804688 0.410157,0.4921875 0.480469,0.4921875 0.269531,0 0.492188,-0.1757812 0.492188,-0.4921875 0,-0.8320312 -1.207032,-0.8320312 -1.734375,-0.8320312 -2.039063,0 -2.707032,1.6757812 -2.707032,2.6835937 0,1.453125 1.113282,2.64843753 2.554688,2.64843753 1.59375,0 2.015625,-1.18359373 2.015625,-1.37109343 z m 4.075195,-1.7460938 1.476563,-1.40625 h 0.363281 c 0.164062,0 0.480469,0 0.480469,-0.3515625 0,-0.3515625 -0.316407,-0.3515625 -0.480469,-0.3515625 h -1.746094 c -0.164062,0 -0.492187,0 -0.492187,0.3515625 0,0.3515625 0.328125,0.3515625 0.492187,0.3515625 h 0.421875 l -1.945312,1.8398438 v -4.1953125 c 0,-0.375 -0.07031,-0.4921875 -0.480469,-0.4921875 h -0.726563 c -0.164062,0 -0.492187,0 -0.492187,0.3398437 0,0.3515625 0.328125,0.3515625 0.492187,0.3515625 h 0.539063 v 5.91796878 h -0.539063 c -0.164062,0 -0.492187,0 -0.492187,0.33984375 0,0.3515625 0.328125,0.3515625 0.492187,0.3515625 h 1.746094 c 0.164063,0 0.492188,0 0.492188,-0.3515625 0,-0.33984375 -0.328125,-0.33984375 -0.492188,-0.33984375 H 38.856805 V -1.6978281 l 0.9375,-0.8789063 1.417968,1.88671878 c -0.375,0 -0.667968,0 -0.667968,0.33984375 0,0.3515625 0.328125,0.3515625 0.492187,0.3515625 h 1.335938 c 0.164062,0 0.480468,0 0.480468,-0.3515625 0,-0.33984375 -0.316406,-0.33984375 -0.480468,-0.33984375 h -0.316407 z m 7.792969,-1.7578125 c 0,-0.1875 0,-0.4570312 -0.328125,-0.4570312 -0.292969,0 -0.363281,0.28125 -0.363281,0.2929687 -0.480469,-0.2929687 -1.019532,-0.2929687 -1.265625,-0.2929687 -1.945313,0 -2.214844,0.9960937 -2.214844,1.40625 0,0.4804687 0.292969,0.8203125 0.703125,1.0429687 0.375,0.2226563 0.726562,0.28125 1.699219,0.4335938 0.46875,0.082031 1.429687,0.234375 1.429687,0.9023437 0,0.4335938 -0.410156,0.85546878 -1.523437,0.85546878 -0.761719,0 -1.265625,-0.3046875 -1.511719,-1.16015628 -0.05859,-0.1640625 -0.09375,-0.2929687 -0.398438,-0.2929687 -0.398437,0 -0.398437,0.2226562 -0.398437,0.4570312 v 1.23046878 c 0,0.19921875 0,0.45703125 0.339844,0.45703125 0.140625,0 0.246093,0 0.433593,-0.4921875 0.550782,0.45703125 1.171875,0.4921875 1.535157,0.4921875 2.214843,0 2.214843,-1.42968753 2.214843,-1.54687503 0,-1.2539062 -1.476562,-1.5 -2.050781,-1.5820312 -1.054687,-0.1757813 -1.769531,-0.3046875 -1.769531,-0.796875 0,-0.328125 0.363281,-0.7148438 1.488281,-0.7148438 1.136719,0 1.183594,0.5390625 1.207031,0.8554688 0.02344,0.234375 0.246094,0.2695312 0.386719,0.2695312 0.386719,0 0.386719,-0.2109375 0.386719,-0.4570312 z m 0,0"
       style="fill:#000000;fill-opacity:1;fill-rule:nonzero;stroke:none"
       aria-label="GoBlocks"
       transform="matrix(1.3333333,0,0,1.3333333,458.25733,137.86533)" />
  </g>
</svg>
