<?xml version="1.0" encoding="UTF-8" standalone="no"?>
<!-- Created with Inkscape (http://www.inkscape.org/) -->

<svg
   width="15.521068in"
   height="6.1139259in"
   viewBox="0 0 1490.0225 586.93689"
   version="1.1"
   id="svg1"
   inkscape:version="1.3-beta (cedbd6c, 2023-05-28)"
   sodipodi:docname="bootstop_text_multi.svg"
   inkscape:export-filename="bootstop_text.jpg"
   inkscape:export-xdpi="300"
   inkscape:export-ydpi="300"
   xmlns:inkscape="http://www.inkscape.org/namespaces/inkscape"
   xmlns:sodipodi="http://sodipodi.sourceforge.net/DTD/sodipodi-0.dtd"
   xmlns="http://www.w3.org/2000/svg"
   xmlns:svg="http://www.w3.org/2000/svg">
  <sodipodi:namedview
     id="namedview1"
     pagecolor="#ffffff"
     bordercolor="#000000"
     borderopacity="0.25"
     inkscape:showpageshadow="2"
     inkscape:pageopacity="0.0"
     inkscape:pagecheckerboard="0"
     inkscape:deskcolor="#d1d1d1"
     inkscape:document-units="in"
     inkscape:zoom="0.38082108"
     inkscape:cx="559.31778"
     inkscape:cy="618.40064"
     inkscape:window-width="2560"
     inkscape:window-height="1382"
     inkscape:window-x="0"
     inkscape:window-y="30"
     inkscape:window-maximized="1"
     inkscape:current-layer="g6" />
  <defs
     id="defs1" />
  <g
     inkscape:label="Layer 1"
     inkscape:groupmode="layer"
     id="layer1"
     transform="translate(-70.988765,-234.53156)">
    <g
       id="g1"
       transform="translate(5.1620175)">
      <g
         id="g6"
         inkscape:export-filename="bootstop_text_multi.jpg"
         inkscape:export-xdpi="300"
         inkscape:export-ydpi="300">
        <g
           id="g56"
           transform="matrix(0.71859293,0,0,0.71859293,-71.396789,66.529707)">
          <path
             id="50"
             d="m 516.72375,565.02006 c -0.0603,-4.5591 24.31561,-117.36824 26.59568,-123.07941 0.89259,-2.23571 2.54342,-4.9389 3.66898,-6.0086 4.09234,-3.88772 99.97142,-69.7124 103.65073,-71.16043 2.08052,-0.81923 5.07036,-1.35382 6.64422,-1.18887 1.57292,0.16532 18.10157,5.86717 36.73045,12.67109 18.62794,6.80429 41.7493,15.18828 51.37935,18.63107 9.63005,3.44279 18.83274,7.22442 20.44947,8.40364 3.05758,2.22903 5.17191,6.86757 49.96548,109.63036 9.44102,21.66001 9.2642,20.10835 4.58392,40.34188 -1.77607,7.67974 -7.51149,33.55957 -12.74478,57.51075 -5.23329,23.95117 -10.46479,45.89942 -11.62681,48.77284 -1.92395,4.75961 -2.8614,5.73667 -10.52811,10.97609 -4.62923,3.16337 -20.9315,14.48545 -36.22821,25.16055 -61.69076,43.05229 -62.28153,43.43745 -67.01492,43.84299 -3.39999,0.29134 -13.34741,-3.14642 -48.36861,-16.71364 -66.66077,-25.82385 -60.53583,-23.14175 -63.75765,-27.91884 -1.6242,-2.40856 -9.70346,-20.95838 -19.14225,-43.94833 -8.98276,-21.87987 -20.35429,-49.321 -25.26986,-60.98037 -6.89486,-16.35344 -8.94863,-22.05466 -8.98708,-24.94277 z M 806.5457,510.12867 c -4.24535,-9.55866 -15.67577,-35.52485 -25.40103,-57.70261 -10.23734,-23.34526 -18.49349,-41.13482 -19.60669,-42.25072 -1.05789,-1.06034 -6.74459,-3.65117 -12.63658,-5.7576 -5.892,-2.10643 -29.08248,-10.4803 -51.53172,-18.60847 -36.10544,-13.07301 -41.17569,-14.6376 -43.92189,-13.55198 -1.70743,0.67497 -17.81427,11.42515 -35.79076,23.88973 -17.97652,12.46459 -40.09631,27.78217 -49.15523,34.03971 -11.65367,8.04997 -16.85279,12.17629 -17.77741,14.11066 -0.7186,1.50347 -7.09417,29.37083 -14.16595,61.92644 -4.28662,19.73059 -8.57193,39.46173 -12.85855,59.19232 8.69226,20.84306 17.38581,41.68669 26.07806,62.52975 14.34278,34.39153 26.73169,63.08428 27.53042,63.76104 0.79873,0.67675 19.32734,8.16549 41.17612,16.64071 54.87623,21.28861 59.58684,23.02333 62.50261,23.03308 1.96743,0.007 9.35092,-4.67292 31.81496,-20.16421 59.53901,-41.05863 75.28813,-52.20505 76.25962,-53.97731 0.54739,-0.99814 3.39267,-12.93937 6.3219,-26.53427 2.92923,-13.5949 6.58614,-30.29691 8.12624,-37.11559 11.01117,-48.76067 12.94785,-58.96096 11.86278,-62.48375 -0.60906,-1.97865 -4.58155,-11.41828 -8.8269,-20.97693 z"
             fill="#306f9a"
             stroke="none" />
          <path
             id="45"
             d="m 537.83771,552.2991 c 1.64071,-7.4101 7.25108,-33.1792 12.46896,-57.2673 5.21787,-24.0881 9.75318,-44.15249 10.07769,-44.58831 0.3245,-0.43581 7.73697,-5.76076 16.47128,-11.83299 59.67426,-41.4863 77.59072,-53.84435 78.69552,-54.28109 0.69097,-0.27315 8.721,2.26662 17.84491,5.64497 9.12392,3.37834 30.11753,10.99051 46.65363,16.91523 16.5361,5.92472 31.33825,11.41551 32.89418,12.20154 2.70083,1.36466 3.49431,2.96932 17.72096,35.86478 8.19151,18.93987 19.36774,44.62482 24.83607,57.0786 3.31368,7.54732 6.62865,15.0952 9.94233,22.64251 -1.32661,5.82459 -2.65284,11.6501 -3.97945,17.47469 -2.18907,9.61079 -7.84314,35.21223 -12.56586,56.89161 -4.72271,21.67938 -8.87165,40.15336 -9.22014,41.05351 -0.34848,0.90014 -9.75613,7.84502 -20.90617,15.43353 -11.15005,7.58851 -32.71309,22.38598 -47.9177,32.88058 -15.20461,10.4946 -28.38881,19.37327 -29.29886,19.72873 -0.91005,0.35545 -12.22367,-3.44549 -25.14186,-8.44658 -12.91819,-5.00109 -34.38701,-13.25231 -47.7084,-18.33488 -8.07389,-3.08052 -16.14648,-6.16047 -24.22037,-9.24098 -1.86187,-4.15767 -3.72504,-8.31591 -5.58691,-12.47358 -3.07338,-6.86057 -12.8429,-30.17033 -21.71061,-51.79997 -8.86771,-21.62964 -17.52098,-42.19456 -19.22802,-45.69943 -1.03447,-2.12448 -2.06949,-4.24765 -3.10395,-6.37212 0.99456,-4.49114 1.9882,-8.98192 2.98277,-13.47305 z m 87.59661,46.42806 c -4.871,-5.87789 -11.07111,-8.93782 -23.89235,-11.78685 -9.92845,-2.20651 -14.28292,-4.34869 -17.40116,-8.56456 -3.58643,-4.84801 -4.29878,-13.42582 -1.39958,-16.84725 4.04093,-4.7685 9.9347,-3.51441 13.65664,2.90589 2.50558,4.32258 2.32774,4.35417 10.7814,-1.93293 1.09035,-0.81061 2.18033,-1.62215 3.27068,-2.43277 -0.93527,-1.90346 -1.86887,-3.80543 -2.80413,-5.70889 -3.36128,-6.84353 -8.66808,-11.58245 -14.37689,-12.83654 -3.09115,-0.67915 -5.29255,-0.36699 -9.67257,1.37309 -17.59148,6.98641 -22.59462,29.08527 -10.81323,47.75443 5.46788,8.66353 10.50846,11.50225 27.86015,15.68193 4.33681,1.04482 9.43552,2.7358 11.33161,3.75942 9.83179,5.30503 10.86302,21.58498 1.59957,25.24694 -4.06026,1.60508 -7.84749,-0.56563 -11.11974,-6.37335 -2.74291,-4.86856 -2.03467,-4.95929 -10.23274,1.31065 -3.12176,2.38787 -3.23278,2.74897 -2.02719,6.59295 2.94741,9.40076 12.49622,17.45537 20.1697,17.01234 8.26099,-0.47743 18.40987,-8.55298 22.08734,-17.57578 4.54006,-11.14127 1.5296,-27.26247 -7.01751,-37.57872 z m 19.5814,-95.46496 c -0.78787,-0.10253 -29.19041,18.53421 -36.96287,24.25416 -0.97205,0.71546 -1.94317,1.43055 -2.91521,2.146 0.91342,2.57449 1.82741,5.14767 2.74083,7.72216 1.50702,4.24741 3.0651,7.57676 3.46228,7.39824 0.39719,-0.17852 2.99304,-1.92192 5.76895,-3.87629 2.7759,-1.95437 5.50247,-3.73977 6.05901,-3.96945 0.71017,-0.29257 6.2181,12.28858 18.49016,42.23079 9.61351,23.45639 17.81048,42.79089 18.21404,42.96578 0.40355,0.17488 3.33237,-1.38723 6.50806,-3.47276 1.92503,-1.26423 3.8495,-2.52717 5.77454,-3.7914 -5.68575,-14.61952 -11.37279,-29.23961 -17.05854,-43.85913 -5.68575,-14.61952 -11.37373,-29.23924 -17.05947,-43.85876 2.15338,-1.57064 4.30806,-3.14072 6.46144,-4.71136 2.15338,-1.57063 4.3075,-3.13941 6.46088,-4.71005 -0.84136,-2.39221 -1.68273,-4.78442 -2.5241,-7.17663 -1.38827,-3.94703 -2.92687,-7.22709 -3.42,-7.2913 z m 61.76738,2.21665 c -5.09065,-11.6235 -7.17023,-15.44241 -10.02594,-18.40933 -7.19299,-7.47295 -14.30203,-8.71116 -23.47634,-4.08655 -11.8473,5.97161 -16.64797,17.40838 -14.47084,34.47085 0.53637,4.20208 3.46802,12.58646 11.56325,33.06444 12.71083,32.15377 14.74482,35.49285 24.09017,39.54282 6.4793,2.8087 12.15833,1.96912 18.95147,-2.79809 9.37814,-6.58159 13.69972,-19.07524 11.53882,-33.36017 -0.96796,-6.3982 -8.16631,-25.58122 -18.17059,-48.42397 z m 42.11618,-48.90815 c -4.65108,-6.58098 -12.06007,-10.19101 -18.43826,-8.98472 -3.78591,0.71596 -26.32438,14.54738 -27.27976,16.74124 -0.52219,1.19786 39.08477,100.26565 40.29507,100.78939 0.69644,0.30105 3.5723,-1.3896 11.00533,-6.47213 1.87255,-1.28005 1.8259,-1.45516 -5.80412,-21.48261 -2.56398,-6.73075 -5.12852,-13.4602 -7.6925,-20.19094 1.8892,-1.3576 3.77784,-2.7139 5.66704,-4.0715 9.82668,-7.05998 14.03033,-16.15531 12.84514,-27.79252 -0.6124,-6.01832 -7.17934,-23.69928 -10.59794,-28.53621 z"
             fill="#88ceec"
             stroke="none"
             style="fill:#ed969e;fill-opacity:1" />
          <ellipse
             style="fill:#e52584;fill-opacity:0"
             id="path48"
             cx="490.96317"
             cy="811.2851"
             rx="28.245697"
             ry="15.071815"
             transform="rotate(9.2489816)" />
          <path
             id="48"
             d="m 275.28769,998.10944 c -12.54298,-23.5502 -15.62579,-37.3207 -14.39506,-64.2905 1.74007,-38.1301 0.19639,-53.30748 -8.73559,-85.87952 l -5.23489,-19.08956 c 6.03258,-2.09768 12.06532,-4.19635 18.0979,-6.29404 46.20434,-16.06871 103.07397,-35.27098 104.00767,-35.11894 0.56852,0.0926 2.25802,4.71826 3.75455,10.2801 2.64895,9.83968 2.80071,10.10857 5.62025,9.95372 3.35391,-2.96347 3.12552,-1.56094 5.85538,6.56243 0.6939,2.06486 1.33234,0.96126 0,0 l -4.26945,1.33109 c -0.46208,2.83763 5.63878,16.91419 7.90305,18.23428 0.96235,0.56097 3.74706,-1.75051 4.81252,-2.99241 2.89108,3.07336 6.70159,7.2836 6.77092,8.19479 -1.0447,-0.0779 -0.45082,1.53246 0,0 -0.21333,0.72515 -6.54025,3.66336 -7.00964,3.03677 l 1.59246,-0.87939 c 1.90972,3.27957 4.91823,6.10181 7.91784,8.38764 l 6.75929,0.55778 c 12.26935,0.50846 16.66346,7.77538 24.51405,11.98063 0.59567,-0.42883 1.28103,-1.98085 1.52315,-3.44903 l 0.44084,-2.66985 c 3.1698,0.18979 5.45055,0.56119 8.88299,1.44652 0,0 -2.11354,4.62295 -1.95135,5.76127 l 69.52694,-19.4309 c 5.56085,-3.35079 13.48006,-7.22231 17.59873,-8.6043 17.65916,-5.92679 34.52359,1.29565 43.00759,18.41987 1.62349,3.27653 3.2252,6.0024 3.55979,6.05689 l 0.60898,0.0992 c -1.4975,0.93345 -5.04927,4.80088 -8.85718,9.19599 -14.16304,16.34413 -42.68574,41.26181 -60.22951,52.61461 -41.06175,26.5728 -56.25856,31.9624 -105.5088,37.4186 -26.75938,2.9646 -38.63922,6.7748 -71.96785,23.078 -20.2217,9.8914 -41.0921,16.5678 -50.72739,16.2258 z"
             fill="#93d4f1"
             stroke="none"
             sodipodi:nodetypes="cssccsccsccsccccccccccscccsscccsccc" />
          <path
             id="path1"
             d="m 369.52522,742.93833 c -13.38262,4.07303 -93.55141,31.56431 -129.57633,44.43452 -4.75158,1.69737 -9.50218,3.3949 -14.25376,5.09227 -10.68984,-42.17848 -15.1388,-59.43083 -16.78569,-65.55008 -1.6469,-6.11925 -5.12922,-19.45229 -7.73849,-29.62897 -2.60928,-10.17668 -6.18755,-23.8911 -7.95208,-30.47631 -3.79713,-14.1685 -4.22041,-13.44817 10.15391,-17.24623 4.94949,-1.30749 17.59059,-4.74038 28.09109,-7.62722 19.83216,-5.45236 67.10915,-18.31499 88.87394,-24.18111 6.8964,-1.85874 13.36022,-3.24486 14.36499,-3.08124 1.0324,0.16812 1.96782,1.31132 2.15127,2.62995 0.1792,1.28248 4.17011,17.77635 8.87039,36.6522 4.70029,18.87586 11.40049,46.18276 14.88946,60.68202 3.48896,14.49927 6.92074,26.79875 7.62735,27.33124 0.42765,0.32293 0.8563,0.64603 1.28395,0.96896 z"
             fill="#93d4f1"
             stroke="none" />
          <path
             id="7"
             d="m 274.50671,1009.1271 c 1.48869,-0.077 2.97639,-0.1536 4.46507,-0.2304 16.80306,-0.8686 32.90138,-6.3626 65.5794,-22.37866 23.61539,-11.5749 32.02568,-13.8953 63.49792,-17.5231 33.77384,-3.8933 43.85717,-6.4083 65.77325,-16.414 38.01899,-17.357 88.32056,-57.1182 108.56889,-85.81992 1.61696,3.55307 3.23276,7.10698 4.84971,10.66005 2.66736,5.86294 4.68353,11.68067 4.48037,12.92817 -0.43733,2.6856 -3.52248,7.0536 -12.62561,17.8782 -2.23777,2.6609 -4.4744,5.321 -6.71217,7.982 -0.7764,-0.9563 -1.55182,-1.9123 -2.32823,-2.8685 -0.7764,-0.9563 -1.55281,-1.9125 -2.32921,-2.8687 -1.97445,1.3674 -3.94973,2.7337 -5.92418,4.1012 -8.37465,5.7973 -9.24072,7.252 -6.77628,11.3808 1.09285,1.8314 1.89973,3.8635 1.79349,4.5159 -0.10624,0.6525 -3.18597,3.6494 -6.84252,6.6609 -2.21622,1.8255 -4.43228,3.6501 -6.64851,5.4756 -0.77915,-1.1634 -1.55829,-2.3267 -2.33744,-3.4901 -1.2852,-1.9195 -2.69968,-3.549 -3.14284,-3.6212 -1.60585,-0.2615 -14.75145,9.1875 -15.01247,10.7904 -0.14738,0.9051 0.52328,3.0893 1.48913,4.8545 0.58563,1.07 1.17143,2.1391 1.75706,3.2091 -2.25677,1.4896 -4.51468,2.9801 -6.77144,4.4698 -2.25676,1.4896 -4.51467,2.9801 -6.77144,4.4697 -0.97512,-1.3411 -1.95138,-2.6815 -2.9265,-4.0226 -0.97512,-1.3412 -1.95139,-2.6815 -2.92651,-4.0227 -2.09587,0.9434 -4.1906,1.886 -6.28648,2.8294 -6.88242,3.0981 -8.14503,5.3454 -5.87391,10.4498 1.1126,2.5003 1.05913,2.8411 -0.66212,4.2154 -1.02954,0.8222 -3.743,2.1797 -6.029,3.0151 -1.38548,0.507 -2.76982,1.013 -4.15531,1.5199 -0.56336,-1.0947 -1.12771,-2.1897 -1.69108,-3.2845 -2.1488,-4.1756 -4.10965,-4.4534 -11.04513,-1.5645 -5.95619,2.4809 -5.82286,2.2159 -5.16121,10.2355 0.20559,2.4955 -0.26475,2.8515 -6.0756,4.5831 -2.09986,0.6256 -4.19987,1.2522 -6.29973,1.8779 -0.49572,-1.5164 -0.9916,-3.0318 -1.48733,-4.5482 -1.71797,-5.2534 -2.90693,-5.6983 -10.70683,-4.0029 -2.96091,0.6435 -15.84204,2.4395 -28.6243,3.9892 -23.54511,2.8559 -30.84432,4.0462 -33.44137,5.4541 -2.05693,1.1149 -10.59797,14.01886 -11.02807,16.66006 -0.19881,1.2209 0.19175,4.2977 0.86834,6.8374 1.43622,5.391 1.39398,5.4388 -7.77528,8.7491 -2.08508,0.7527 -4.1713,1.5061 -6.25638,2.2588 -0.35944,-1.2956 -0.71805,-2.5901 -1.07748,-3.8857 -1.63589,-5.9006 -2.75688,-6.3274 -10.45455,-3.978 -6.71781,2.0499 -6.81255,2.1277 -6.85413,5.6184 -0.10415,8.8523 0.14653,8.4018 -5.83601,10.4722 -1.86387,0.6448 -3.7279,1.2906 -5.59177,1.9354 -0.46157,-1.4399 -0.92397,-2.881 -1.38554,-4.3209 -1.68511,-5.2562 -2.99887,-5.5755 -11.19067,-2.724 -2.08255,0.7247 -4.16526,1.4504 -6.24781,2.1751 0.17181,1.6389 0.3428,3.2767 0.51462,4.9156 0.17182,1.6389 0.3438,3.2769 0.51562,4.9158 -1.37719,0.3502 -2.75422,0.6994 -4.13142,1.0496 -8.01235,2.0357 -17.49024,3.5206 -18.54518,2.9061 -0.5867,-0.3417 -1.3654,-1.9123 -1.72867,-3.4892 -0.36328,-1.5769 -2.4108,-9.193 -8.43516,-30.9815 z"
             fill="#66adcf"
             stroke="none" />
          <path
             id="36"
             d="m 225.69513,792.46512 c 4.75158,-1.69737 9.50218,-3.3949 14.25376,-5.09227 36.02492,-12.87021 116.19371,-40.36149 129.57633,-44.43452 1.43128,0.35668 2.86142,0.71418 4.2927,1.07086 5.84656,1.45866 9.36579,5.27591 11.7133,12.7048 4.03491,12.77054 2.60997,20.07751 -4.96493,25.46203 -1.37142,0.97425 -2.74102,1.9498 -4.11244,2.92405 1.76748,6.53605 3.53511,13.07111 5.30258,19.60716 -0.0762,0.46784 -0.15221,0.93469 -0.22839,1.40253 -0.12553,0.77085 -1.53182,1.47396 -3.12552,1.56094 -2.81954,0.15485 -2.9713,-0.11404 -5.62025,-9.95372 -1.49653,-5.56184 -3.18603,-10.18752 -3.75455,-10.2801 -0.9337,-0.15204 -57.80333,19.05023 -104.00767,35.11894 -6.03258,2.09769 -12.06532,4.19636 -18.0979,6.29404 1.74497,6.36319 3.48993,12.72638 5.23489,19.08956 8.93198,32.57204 10.47566,47.74942 8.73559,85.87952 -1.23073,26.9698 1.85208,40.7403 14.39506,64.2905 -0.43884,0.6043 -0.87751,1.2076 -1.31635,1.8119 -1.99382,2.74326 -3.78432,1.85486 -7.17766,-3.5629 -4.81513,-7.6868 -9.23244,-20.7659 -11.25531,-33.3303 -2.02657,-12.5854 -2.12647,-17.9573 -0.76978,-41.2085 1.5465,-26.4949 -0.51207,-42.06923 -10.04845,-76.0254 -1.45016,-5.16219 -2.90016,-10.32537 -4.35032,-15.48756 -1.09135,0.0259 -2.18172,0.052 -3.27308,0.0779 -7.54315,0.18098 -12.61629,-5.05042 -15.85844,-16.35548 -2.64317,-9.21564 -1.76126,-13.48034 4.45683,-21.56403 z m 4.32958,6.07688 c -3.76879,2.45011 -4.33191,8.17909 -1.58879,16.15263 1.90763,5.54469 2.71304,6.65255 5.7965,7.96925 3.89903,1.66533 7.21475,0.76555 44.22238,-11.99226 7.97025,-2.74771 28.97355,-9.9354 46.67406,-15.97297 55.48296,-18.92454 52.85288,-17.91108 54.53825,-21.0186 2.21438,-4.0852 2.22934,-5.27831 0.15825,-12.46968 -2.00447,-6.95965 -4.51128,-10.23717 -8.2984,-10.85387 -2.09145,-0.34058 -32.52552,9.68525 -90.11061,29.6849 -10.33644,3.59035 -25.55429,8.84781 -33.81766,11.68456 -8.26337,2.83675 -16.17126,5.90464 -17.57398,6.81604 z"
             fill="#1b5884"
             stroke="none" />
          <path
             id="path3"
             d="m 230.02471,798.542 c 1.40272,-0.9114 9.31061,-3.97929 17.57398,-6.81604 8.26337,-2.83675 23.48122,-8.09421 33.81766,-11.68456 57.58509,-19.99965 88.01916,-30.02548 90.11061,-29.6849 3.78712,0.6167 6.29393,3.89422 8.2984,10.85387 2.07109,7.19137 2.05613,8.38448 -0.15825,12.46968 -1.68537,3.10752 0.94471,2.09406 -54.53825,21.0186 -17.70051,6.03757 -38.70381,13.22526 -46.67406,15.97297 -37.00763,12.75781 -40.32335,13.65759 -44.22238,11.99226 -3.08346,-1.3167 -3.88887,-2.42456 -5.7965,-7.96925 -2.74312,-7.97354 -2.18,-13.70252 1.58879,-16.15263 z"
             fill="#93d4f1"
             stroke="none" />
          <path
             id="path4"
             d="m 274.50671,1009.1271 c 6.02436,21.7885 8.07188,29.4046 8.43516,30.9815 0.36327,1.5769 1.14197,3.1475 1.72867,3.4892 1.05494,0.6145 10.53283,-0.8704 18.54518,-2.9061 1.3772,-0.3502 2.75423,-0.6994 4.13142,-1.0496 -0.17182,-1.6389 -0.3438,-3.2769 -0.51562,-4.9158 -0.17182,-1.6389 -0.34281,-3.2767 -0.51462,-4.9156 2.08255,-0.7247 4.16526,-1.4504 6.24781,-2.1751 8.1918,-2.8515 9.50556,-2.5322 11.19067,2.724 0.46157,1.4399 0.92397,2.881 1.38554,4.3209 1.86387,-0.6448 3.7279,-1.2906 5.59177,-1.9354 5.98254,-2.0704 5.73186,-1.6199 5.83601,-10.4722 0.0416,-3.4907 0.13632,-3.5685 6.85413,-5.6184 7.69767,-2.3494 8.81866,-1.9226 10.45455,3.978 0.35943,1.2956 0.71804,2.5901 1.07748,3.8857 2.08508,-0.7527 4.1713,-1.5061 6.25638,-2.2588 9.16926,-3.3103 9.2115,-3.3581 7.77528,-8.7491 -0.67659,-2.5397 -1.06715,-5.6165 -0.86834,-6.8374 0.4301,-2.6412 8.97114,-15.54516 11.02807,-16.66006 2.59705,-1.4079 9.89626,-2.5982 33.44137,-5.4541 12.78226,-1.5497 25.66339,-3.3457 28.6243,-3.9892 7.7999,-1.6954 8.98886,-1.2505 10.70683,4.0029 0.49573,1.5164 0.99161,3.0318 1.48733,4.5482 2.09986,-0.6257 4.19987,-1.2523 6.29973,-1.8779 5.81085,-1.7316 6.28119,-2.0876 6.0756,-4.5831 -0.66165,-8.0196 -0.79498,-7.7546 5.16121,-10.2355 6.93548,-2.8889 8.89633,-2.6111 11.04513,1.5645 0.56337,1.0948 1.12772,2.1898 1.69108,3.2845 1.38549,-0.5069 2.76983,-1.0129 4.15531,-1.5199 2.286,-0.8354 4.99946,-2.1929 6.029,-3.0151 1.72125,-1.3743 1.77472,-1.7151 0.66212,-4.2154 -2.27112,-5.1044 -1.00851,-7.3517 5.87391,-10.4498 2.09588,-0.9434 4.19061,-1.886 6.28648,-2.8294 0.97512,1.3412 1.95139,2.6815 2.92651,4.0227 0.97512,1.3411 1.95138,2.6815 2.9265,4.0226 2.25677,-1.4896 4.51468,-2.9801 6.77144,-4.4697 2.25676,-1.4897 4.51467,-2.9802 6.77144,-4.4698 -0.58563,-1.07 -1.17143,-2.1391 -1.75706,-3.2091 -0.96585,-1.7652 -1.63651,-3.9494 -1.48913,-4.8545 0.26102,-1.6029 13.40662,-11.0519 15.01247,-10.7904 0.44316,0.072 1.85764,1.7017 3.14284,3.6212 l 2.33744,3.4901 c 2.21623,-1.8255 4.43229,-3.6501 6.64851,-5.4756 3.65655,-3.0115 6.73628,-6.0084 6.84252,-6.6609 0.10624,-0.6524 -0.70064,-2.6845 -1.79349,-4.5159 -2.46444,-4.1288 -1.59837,-5.5835 6.77628,-11.3808 1.97445,-1.3675 3.94973,-2.7338 5.92418,-4.1012 l 2.32921,2.8687 c 0.77641,0.9562 1.55183,1.9122 2.32823,2.8685 2.23777,-2.661 4.4744,-5.3211 6.71217,-7.982 9.10313,-10.8246 12.18828,-15.1926 12.62561,-17.8782 0.20316,-1.2475 -1.81301,-7.06523 -4.48037,-12.92817 -1.61695,-3.55307 -3.23275,-7.10698 -4.84971,-10.66005 l 0.24109,-1.4805 c 0.46401,-2.84947 -3.05492,-6.01521 -6.18573,-5.56658 l -0.60898,-0.0992 c -0.33459,-0.0545 -1.9363,-2.78036 -3.55979,-6.05689 -8.484,-17.12422 -25.34843,-24.34666 -43.00759,-18.41987 -4.11867,1.38199 -12.03788,5.25351 -17.59873,8.6043 -29.8609,17.99151 -43.38206,21.77045 -69.52694,19.4309 l 0.6429,-3.94799 c 0.43588,-0.60481 0.87258,-1.20847 1.30845,-1.81328 l 6.82908,0.0604 c 17.49061,0.15418 31.22669,-4.14194 51.5084,-16.10671 24.78527,-14.62148 30.66303,-16.48399 44.86954,-14.22427 8.52294,1.35547 9.93955,1.87694 15.46658,5.68984 6.94351,4.78926 13.08137,12.0684 16.1148,19.11152 1.14542,2.65967 3.30112,5.59835 4.78962,6.53071 3.97279,2.48787 15.69249,28.48045 14.93596,33.12621 -0.58214,3.575 -6.02414,11.0738 -17.97944,24.7734 -7.31157,8.3777 -9.3192,9.1339 -12.67327,4.769 -0.59522,-0.7747 -1.18977,-1.5473 -1.78499,-2.322 l -2.73437,2.1018 c -0.91145,0.7006 -1.82373,1.4001 -2.73519,2.1007 0.55939,1.0881 1.11978,2.1763 1.67917,3.2643 0.92354,1.7948 1.52263,4.2257 1.33104,5.4022 -0.41772,2.5652 -17.04981,16.4576 -20.65904,17.2559 -1.99171,0.4406 -2.88881,0.01 -4.59929,-2.2181 -0.70806,-0.9217 -1.41709,-1.8437 -2.12515,-2.7655 -0.99507,0.7164 -1.98801,1.4321 -2.98309,2.1485 -2.83603,2.0417 -2.92345,2.2737 -1.75144,4.7016 2.49313,5.1659 1.09586,7.2322 -9.37178,13.868 -10.90145,6.9107 -13.19254,7.2175 -16.20853,2.1641 -1.6884,-2.8282 -2.24598,-3.1621 -3.88277,-2.3314 -1.79711,0.913 -1.84331,1.178 -0.7762,4.443 1.91024,5.846 0.72431,7.274 -10.09432,12.1455 -3.30514,1.4881 -6.60931,2.9764 -9.91445,4.4645 -0.95026,-1.4192 -1.90036,-2.8393 -2.85061,-4.2585 -2.50757,-3.7457 -3.09133,-4.1366 -4.84102,-3.2473 -1.89212,0.9614 -1.93239,1.1838 -0.82952,4.559 1.67492,5.1258 -0.0503,6.9472 -9.81064,10.3598 -10.62532,3.7156 -12.43573,3.441 -15.11179,-2.2876 l -2.08261,-4.4576 c -1.81072,0.393 -3.61963,0.7874 -5.43035,1.1805 -2.9872,0.6493 -15.11271,2.3222 -26.94596,3.7185 -31.52681,3.7202 -30.88653,3.5276 -35.36025,10.61769 -1.23868,1.9635 -2.47835,3.9268 -3.71702,5.8902 0.48567,1.8643 0.973,3.7309 1.45867,5.5952 1.74339,6.6902 1.52233,8.7818 -1.09584,10.3879 -3.52983,2.1648 -19.91158,7.7008 -21.85301,7.3847 -1.10248,-0.1795 -2.753,-2.1515 -3.95498,-4.7251 -1.86104,-3.9829 -2.26506,-4.3142 -4.11944,-3.373 -1.95382,0.9919 -1.9937,1.187 -0.79207,3.8873 2.51367,5.6494 0.67602,7.9064 -9.42274,11.574 -11.20269,4.0693 -13.16935,3.9081 -15.17379,-1.2349 -1.23925,-3.1785 -1.93988,-3.8286 -3.94427,-3.6585 -2.36596,0.2003 -2.40569,0.3013 -1.37168,3.4646 2.34627,7.1815 -0.7685,9.1119 -19.96454,12.3751 -15.03622,2.5555 -14.82852,2.7048 -19.65044,-14.0926 -6.19389,-21.575 -6.80852,-24.825 -4.99269,-26.4067 0.8867,-0.7726 2.313,-1.0013 5.01651,0.3093 z"
             fill="#1b5884"
             stroke="none"
             sodipodi:nodetypes="cssccsccscccccccsscccscccssccccscscsccsscccscccscssccscscccccccsccscscscsccssccscscccscccscccccccccscccccccccsc" />
          <path
             id="path8"
             d="m 802.97462,425.87315 c 1.39206,-1.61893 6.84421,-8.16557 12.11469,-14.54729 17.53905,-21.23594 31.40512,-35.03321 73.55367,-73.18434 45.3239,-41.02627 66.3535,-61.91673 91.5526,-90.94845 6.4569,-7.4394 12.0377,-13.46867 12.4017,-13.39968 1.3409,0.25407 -13.2396,20.68177 -23.7759,33.31007 -16.7807,20.11298 -41.0107,44.76334 -64.8259,65.94856 -44.312,39.41951 -73.10209,66.37242 -94.74973,88.70533 -4.39688,4.53644 -8.17577,7.98018 -8.39819,7.65376 -0.22242,-0.32642 0.735,-1.91903 2.12706,-3.53796 z"
             fill="#93d4f1"
             stroke="none" />
          <path
             id="path9"
             d="m 852.31358,492.51039 c 2.7286,-3.32105 5.3259,-6.51513 5.7702,-7.09738 2.2255,-2.91406 17.7656,-19.02098 27.0402,-28.02578 5.7652,-5.59707 24.5561,-21.97322 41.7581,-36.39063 45.3979,-38.04784 78.98512,-68.82731 105.40282,-96.59106 6.208,-6.52434 11.5172,-11.81918 11.7965,-11.76625 0.8823,0.16719 -14.8769,20.25567 -24.4531,31.17096 -24.44592,27.86389 -53.29522,54.35002 -100.12072,91.92223 -16.278,13.06172 -41.1175,34.84809 -56.2561,49.34057 -7.3603,7.04581 -13.9486,12.96047 -14.641,13.14306 -0.6924,0.18252 0.9744,-2.38466 3.7031,-5.70572 z"
             fill="#93d4f1"
             stroke="none" />
          <path
             id="path10"
             d="m 673.0414,510.30209 c -0.33508,-8.9291 5.35161,-14.50411 11.49939,-11.27188 4.11298,2.16237 7.66378,9.43637 18.1146,37.11351 7.19315,19.04744 8.45991,23.14681 8.34398,27.01533 -0.24957,8.35052 -6.50041,12.96357 -12.51602,9.23606 -2.85962,-1.77179 -3.47264,-3.04778 -14.11762,-29.36641 -9.74867,-24.10297 -11.15284,-28.16093 -11.32433,-32.72661 z"
             fill="#93d4f1"
             stroke="none"
             style="fill:#ed969e" />
          <path
             id="path11"
             d="m 850.80288,531.69843 c 4.7757,-6.2164 19.474,-22.0885 29.1515,-31.4768 10.5524,-10.2373 26.9406,-24.30947 61.4566,-52.76681 26.612,-21.94134 48.8745,-41.12713 67.70732,-58.35106 11.8901,-10.87409 15.0777,-12.83433 9.1562,-5.63029 -16.7026,20.31993 -46.68782,48.10649 -89.04242,82.51362 -32.7535,26.60778 -50.3023,41.64754 -66.3354,56.85354 -7.6137,7.2209 -14.1441,13.0731 -14.5123,13.0033 -0.3682,-0.07 0.7207,-1.9347 2.4185,-4.1455 z"
             fill="#93d4f1"
             stroke="none" />
          <path
             id="path12"
             d="m 862.79458,555.64413 c 2.6477,-3.7524 16.5332,-18.6204 25.1085,-26.8862 12.7005,-12.2419 25.5216,-23.2664 44.637,-38.3813 26.8367,-21.2208 42.5564,-34.30628 56.509,-47.03713 7.0517,-6.43497 13.31882,-12.02187 13.92672,-12.4155 5.3606,-3.47363 -13.35642,17.48078 -28.61392,32.03492 -12.9251,12.32965 -21.6533,19.68914 -45.7269,38.55761 -22.6561,17.7575 -38.4701,31.0367 -53.8225,45.1957 -11.7523,10.8383 -15.1406,13.3564 -12.0179,8.9319 z"
             fill="#93d4f1"
             stroke="none" />
          <path
             id="path14"
             d="m 851.23568,425.18141 c -0.5358,-4.7608 0.6849,-9.27728 3.5977,-13.30831 1.6994,-2.35234 1.7779,-3.50337 0.4589,-6.70189 -1.347,-3.26425 -1.2696,-4.13985 0.494,-5.66462 2.063,-1.78327 2.1099,-1.75711 4.1401,2.32177 1.9411,3.90006 2.1621,4.05203 4.0374,2.79961 5.8445,-3.90373 14.6816,1.90687 16.518,10.86019 0.8599,4.1903 -1.0559,12.13539 -3.6113,14.97541 -2.3275,2.58669 -2.3478,4.00783 -0.1046,7.3354 1.7354,2.57356 1.3162,4.37542 -1.4579,6.26572 -1.0438,0.7112 -1.6574,0.12496 -3.2755,-3.12518 -1.9218,-3.86114 -2.0878,-3.96097 -4.7878,-2.87632 -1.5384,0.61745 -4.4976,0.64686 -6.5765,0.0644 -4.7053,-1.31838 -8.7486,-6.86688 -9.4325,-12.94616 z m 5.8301,-11.09758 c -2.7437,5.25416 0.639,15.93338 5.9577,18.80737 2.7524,1.48738 6.2683,1.07983 5.1385,-0.59594 -0.2303,-0.3416 -2.15,-4.34338 -4.2654,-8.89182 -5.2024,-11.18668 -5.5838,-11.70731 -6.8308,-9.31961 z m 11.2556,-5.49373 c -3.4232,-1.69581 -5.5448,-0.54546 -4.3416,2.3533 2.0899,5.03657 6.6743,14.3609 8.0618,16.39713 1.375,2.01804 1.5936,2.01915 2.4983,0.0135 2.57,-5.70089 -0.8827,-16.12062 -6.2185,-18.76395 z"
             fill="#306f9a"
             stroke="none" />
          <path
             id="path15"
             d="m 971.68518,314.62099 c -0.6166,-4.7941 1.4439,-12.11297 3.8768,-13.77073 2.0486,-1.39592 2.082,-3.99128 0.089,-6.91587 -1.2411,-1.82137 -1.5087,-3.32947 -0.8231,-4.64251 1.9675,-3.76684 2.8673,-3.57043 5.3333,1.1639 1.988,3.81609 2.5318,4.32648 3.7359,3.50966 3.0382,-2.06053 8.8274,-1.39245 12.072,1.39438 6.46552,5.55337 7.72542,15.06531 3.0358,22.90507 -2.5756,4.30581 -2.719,5.26389 -1.3393,8.94025 1.3178,3.51279 1.228,4.39323 -0.6117,5.98562 -2.148,1.85929 -2.1644,1.85113 -4.1275,-2.2215 -1.9127,-3.96664 -2.0536,-4.05452 -4.7472,-2.97298 -7.0218,2.82061 -15.2715,-3.86825 -16.4942,-13.37529 z m 6.923,-12.21617 c -2.8304,1.92861 -1.7294,11.09018 1.9893,16.54766 2.0441,2.9998 3.4491,4.14191 5.4367,4.41634 1.4741,0.20447 2.7419,0.046 2.8172,-0.35138 0.075,-0.39739 -1.5623,-4.4062 -3.6382,-8.90899 -2.0759,-4.50279 -4.1572,-9.15198 -4.6257,-10.32964 -0.5601,-1.40804 -1.238,-1.87908 -1.9793,-1.37399 z m 10.6063,-4.20185 c -2.4011,-1.17973 -4.4125,-1.28306 -4.8725,-0.24966 -0.371,0.83363 9.0644,20.93548 9.9009,21.09398 1.2839,0.24328 2.4137,-5.25193 1.9043,-9.26356 -0.6082,-4.7817 -3.7376,-10.01022 -6.9327,-11.58076 z"
             fill="#306f9a"
             stroke="none" />
          <path
             id="path15-2"
             d="m 930.65548,351.12799 c -0.6166,-4.7941 1.4439,-12.11297 3.8768,-13.77073 2.0486,-1.39592 2.082,-3.99128 0.089,-6.91588 -1.2411,-1.82136 -1.5087,-3.32946 -0.8231,-4.6425 1.9675,-3.76685 2.8673,-3.57042 5.3333,1.16389 1.988,3.8161 2.5318,4.32649 3.7359,3.50966 3.0382,-2.06052 8.8274,-1.39245 12.072,1.39439 6.4655,5.55337 7.7254,15.06531 3.0358,22.90507 -2.5756,4.30581 -2.719,5.26389 -1.3393,8.94025 1.3178,3.51279 1.228,4.39322 -0.6117,5.98561 -2.148,1.85929 -2.1644,1.85114 -4.1275,-2.22149 -1.9127,-3.96664 -2.0536,-4.05452 -4.7472,-2.97298 -7.0218,2.82062 -15.2715,-3.86825 -16.4942,-13.37529 z m 6.923,-12.21616 c -2.8304,1.9286 -1.7294,11.09017 1.9893,16.54765 2.0441,2.99981 3.4491,4.14191 5.4367,4.41635 1.4741,0.20446 2.7419,0.046 2.8173,-0.35139 0.075,-0.39739 -1.5624,-4.4062 -3.6383,-8.90899 -2.0759,-4.50279 -4.1572,-9.15198 -4.6256,-10.32964 -0.5602,-1.40804 -1.2381,-1.87908 -1.9794,-1.37398 z m 10.6063,-4.20186 c -2.4011,-1.17973 -4.4125,-1.28306 -4.8725,-0.24966 -0.3709,0.83363 9.0644,20.93548 9.9009,21.09398 1.2839,0.24328 2.4137,-5.25192 1.9043,-9.26356 -0.6081,-4.7817 -3.7376,-10.01022 -6.9327,-11.58076 z"
             fill="#306f9a"
             stroke="none" />
          <path
             id="path16"
             d="m 891.35398,391.38327 c -1.3701,-5.1132 -0.6402,-10.45819 2.0089,-14.71122 2.9528,-4.73955 3.081,-5.80343 1.0546,-8.81283 -1.4294,-2.12263 -0.7805,-5.25842 1.3954,-6.74105 0.4925,-0.33561 1.9947,1.03434 3.4075,3.10775 2.3442,3.44026 2.7882,3.65323 6.1592,2.96201 12.6817,-2.60167 20.2762,16.21576 10.9229,27.06389 -1.533,1.77789 -1.5182,2.83144 0.094,6.47273 1.7449,3.9406 1.71,4.49679 -0.3626,5.90903 -2.2048,1.50234 -2.362,1.42072 -4.2926,-2.2348 -1.9348,-3.66353 -2.1178,-3.75793 -5.3123,-2.73316 -6.275,2.01283 -13.0121,-2.58225 -15.0752,-10.28235 z m 6.2407,-15.74815 c -1.1933,0.81311 -1.9893,7.80882 -1.2415,10.90773 1.1089,4.59302 4.6719,9.1437 7.9236,10.119 1.6011,0.47971 2.9976,0.4212 3.1032,-0.13238 0.1056,-0.55358 -1.2855,-4.23427 -3.0922,-8.17868 -1.8068,-3.94441 -3.8924,-8.52892 -4.6342,-10.18587 -0.7418,-1.65695 -1.6689,-2.79558 -2.0589,-2.5298 z m 9.69,-3.91271 c -4.8324,-1.82827 -4.8015,0.025 0.1812,10.60874 2.6314,5.5897 5.1466,10.23116 5.5885,10.31489 1.3158,0.24934 2.4686,-6.54057 1.7375,-10.23653 -0.9027,-4.56404 -4.3718,-9.50067 -7.5072,-10.6871 z"
             fill="#306f9a"
             stroke="none" />
          <path
             id="path17"
             d="m 801.11918,388.83099 c 20.86781,-27.60631 39.62051,-46.38627 93.4243,-93.56464 39.4133,-34.55931 42.1152,-36.55041 24.9762,-18.39809 -15.654,16.57903 -28.0749,28.63647 -46.6121,45.24998 -30.7588,27.56584 -50.32115,46.58893 -68.95583,67.05518 -4.08974,4.49172 -7.95991,8.31472 -8.59962,8.4965 -0.6397,0.18178 1.95498,-3.79585 5.76705,-8.83893 z"
             fill="#93d4f1"
             stroke="none" />
          <path
             id="path18"
             d="m 721.87266,470.64189 c 1.1955,-1.60274 7.13192,-4.78607 9.50844,-5.09864 4.04495,-0.53125 7.10087,2.93396 10.76725,12.20857 2.43666,6.16385 3.13004,9.15006 2.79413,12.03778 -0.52446,4.51068 -4.19817,9.25337 -8.47697,10.94484 -1.01274,0.40035 -2.02455,0.80033 -3.03729,1.20068 -2.01461,-5.09625 -4.0296,-10.19342 -6.04421,-15.28967 -3.32449,-8.40973 -5.8043,-15.61032 -5.51135,-16.00356 z"
             fill="#88ceec"
             stroke="none"
             style="fill:#ed969e" />
          <path
             id="15"
             d="m 570.82457,728.35254 c 0.16282,0.72358 0.28193,1.62849 0.26313,2.01145 -0.0995,2.07296 -31.81696,56.92529 -34.03181,58.85439 -3.00256,2.61642 -2.74058,-1.2011 0.57715,-8.40349 4.891,-10.61693 26.77605,-52.00148 28.1756,-53.27915 0.64751,-0.59162 1.97356,-0.94509 2.94773,-0.78645 0.97416,0.15863 1.90538,0.87968 2.0682,1.60325 z"
             fill="#1e547e"
             stroke="none" />
          <path
             id="path19"
             d="m 829.02977,431.17018 c 3.15663,-0.74479 3.6565,2.10922 2.21764,12.66503 -0.77661,5.69743 -1.27658,10.55775 -1.10991,10.80237 0.16666,0.24462 4.19614,0.5641 8.95441,0.71008 4.75828,0.14596 8.88117,0.60264 9.16217,1.01501 1.2259,1.79905 1.1834,4.11991 -0.092,4.98877 -2.07586,1.41449 -23.12569,0.007 -24.23443,-1.61987 -0.52537,-0.77102 0.008,-7.41847 1.18647,-14.77279 1.59157,-9.93744 2.59778,-13.47764 3.91543,-13.7886 z"
             fill="#1b5884"
             stroke="none" />
          <path
             id="path20"
             d="m 1014.3256,267.08257 c 7.091,0.42967 11.9816,1.28657 12.61,2.20883 1.4128,2.07341 -2.7764,27.36403 -4.7556,28.71264 -3.4105,2.32391 -4.3434,-2.61289 -2.5907,-13.7044 0.568,-3.59374 1.1365,-7.18665 1.7045,-10.78039 -3.0814,-0.07 -6.1627,-0.14006 -9.2441,-0.2101 -7.7508,-0.17614 -9.4323,-0.56961 -10.4084,-2.4372 -0.6401,-1.22529 -0.6537,-2.73707 -0.031,-3.35968 0.6225,-0.62261 6.3453,-0.81563 12.7156,-0.4297 z"
             fill="#1b5884"
             stroke="none" />
          <path
             id="path21"
             d="m 379.98845,815.56422 c -5.36365,1.82871 -10.72713,3.65642 -16.09078,5.48512 z"
             fill="#fdfdfd"
             stroke="none"
             sodipodi:nodetypes="cc" />
          <path
             id="path24"
             d="m 396.35321,839.50571 c 1.04052,-0.16795 2.08121,-0.33688 3.12173,-0.50483 6.85848,7.21943 11.92144,10.88599 7.95465,14.70064 l -5.45399,-4.15562 c -2.99961,-2.28583 -6.00812,-5.10807 -7.91784,-8.38764 z"
             fill="#1b5884"
             stroke="none"
             sodipodi:nodetypes="cccccc" />
          <path
             id="path25"
             d="m 593.62384,772.83932 c 2.29456,1.9927 -0.84431,5.09149 -16.15198,15.94021 -15.25143,10.80823 -19.99398,13.20919 -19.44575,9.84254 0.30666,-1.88319 30.14402,-25.88969 32.63217,-26.25554 1.13867,-0.16716 2.47291,0.0451 2.96556,0.47279 z"
             fill="#1b5884"
             stroke="none" />
          <path
             id="path26"
             d="m 435.21293,855.96543 c -0.14695,0.88995 -0.29389,1.7799 -0.44084,2.66985 -0.24212,1.46818 -0.92748,3.0202 -1.52315,3.44903 -0.67831,0.48833 -4.3504,-0.18765 -18.57962,-4.39839 0.56494,-0.91206 1.12888,-1.82427 1.69382,-2.73633 0.56494,-0.91206 1.12872,-1.82329 1.69366,-2.73535 5.71838,1.25034 11.43775,2.50084 17.15613,3.75119 z"
             fill="#1b5884"
             stroke="none" />
          <path
             id="path27"
             d="m 523.31584,705.17175 c 14.5069,-12.12635 27.0373,-20.33043 29.4534,-19.28335 1.8945,0.82101 0.4765,3.58272 -3.414,6.64546 -5.8387,4.59744 -29.4611,18.80682 -32.5926,19.60602 -1.8206,0.46487 0.085,-1.56155 6.5532,-6.96813 z"
             fill="#93d4f1"
             stroke="none" />
          <path
             id="path28"
             d="m 384.2579,814.23313 c 0.60481,0.43587 1.20847,0.87257 1.81327,1.30845 2.2109,5.0885 4.42195,10.17601 6.63285,15.26451 -0.55278,0.64453 -1.10441,1.28824 -1.65719,1.93278 -1.06546,1.2419 -2.19298,1.6206 -3.15533,1.05963 -2.26427,-1.32009 -8.36513,-15.39665 -7.90305,-18.23428 1.42288,-0.44408 2.84658,-0.88701 4.26945,-1.33109 z"
             fill="#1b5884"
             stroke="none" />
          <path
             id="path29"
             d="m 489.95448,638.16936 c 6.3171,-6.07476 24.34036,-19.71592 29.34866,-22.21407 5.25,-2.61844 5.7339,-2.69466 6.0635,-0.94963 0.4534,2.39825 -7.8582,8.90876 -23.24495,18.21082 -11.48838,6.94482 -16.25864,8.88648 -12.16721,4.95288 z"
             fill="#93d4f1"
             stroke="none" />
          <path
             id="path30"
             d="m 618.0956,811.02499 c 0.58555,3.16729 -2.34084,4.16491 -17.19235,5.85994 -15.84161,1.80837 -19.80348,1.81063 -19.51063,0.0123 0.19962,-1.22585 8.51267,-3.52158 22.06627,-6.09362 10.32312,-1.95929 14.24461,-1.90024 14.63671,0.22137 z"
             fill="#1b5884"
             stroke="none" />
          <path
             id="path33"
             d="m 507.36124,668.98507 c 19.3247,-15.63417 27.1935,-20.29434 28.5361,-16.89808 0.9591,2.4263 -3.7375,6.08836 -22.60416,17.62309 -16.57604,10.13456 -16.00713,9.83009 -16.42182,8.78108 -0.168,-0.42499 4.55284,-4.70311 10.48988,-9.50609 z"
             fill="#93d4f1"
             stroke="none" />
          <path
             id="58"
             d="m 1016.6317,413.11206 c 0.6884,-0.46906 1.7402,-0.10999 2.3658,0.80813 0.6256,0.91812 0.575,2.02839 -0.1134,2.49743 -0.6884,0.46906 -1.7402,0.10998 -2.3658,-0.80814 -0.6256,-0.91811 -0.5749,-2.02838 0.1134,-2.49742 z"
             fill="#8fd2f3"
             stroke="none" />
          <path
             id="61"
             d="m 1044.2268,352.3966 c 0.5514,-0.79441 1.6684,-1.31829 2.4826,-1.164 2.1176,0.40126 2.5923,3.57005 0.6601,4.40508 -2.1518,0.93016 -4.4155,-1.40452 -3.1427,-3.24108 z"
             fill="#92d3f1"
             stroke="none" />
          <path
             id="60"
             d="m 876.05168,311.48169 c 1.0865,-1.60116 1.8692,-1.84104 3.1576,-0.96675 1.3008,0.88269 1.3465,1.5651 0.1903,2.83617 -2.2587,2.48436 -5.1908,0.84635 -3.3479,-1.8694 z"
             fill="#8fd0f0"
             stroke="none" />
          <path
             id="59"
             d="m 933.86418,265.00555 c 0.6818,-0.46456 1.6197,-0.28684 2.0842,0.39494 0.4646,0.68177 0.2869,1.61967 -0.3949,2.08423 -0.6818,0.46456 -1.6197,0.28684 -2.0842,-0.39494 -0.4646,-0.68177 -0.2869,-1.61968 0.3949,-2.08423 z"
             fill="#8dcdec"
             stroke="none" />
          <ellipse
             style="fill:#e52584;fill-opacity:0"
             id="path49"
             cx="309.70984"
             cy="614.34351"
             rx="99.115746"
             ry="55.393726" />
        </g>
        <text
           xml:space="preserve"
           style="font-size:217.548px;font-family:Chalkboard;-inkscape-font-specification:Chalkboard;letter-spacing:0px;word-spacing:0px;fill:#66adcf;fill-opacity:1;stroke-width:1.69959"
           x="589.50519"
           y="600.21918"
           id="text1"><tspan
             x="589.50519"
             y="600.21918"
             sodipodi:role="line"
             style="font-size:217.548px;letter-spacing:0px;word-spacing:0px;stroke-width:1.69959"
             id="tspan3">Boot<tspan
   style="letter-spacing:0px;word-spacing:0px;fill:#ed969e;stroke-width:1.69959"
   id="tspan2">STOP</tspan></tspan><tspan
             x="589.50519"
             y="872.15417"
             sodipodi:role="line"
             style="font-size:133.333px;letter-spacing:0px;word-spacing:0px;stroke-width:1.69959"
             id="tspan5" /></text>
        <text
           xml:space="preserve"
           style="font-size:128px;font-family:Chalkboard;-inkscape-font-specification:Chalkboard;letter-spacing:0px;word-spacing:0px;fill:#66adcf;fill-opacity:1"
           x="618.56042"
           y="720.83704"
           id="text6"><tspan
             sodipodi:role="line"
             id="tspan6"
             x="618.56042"
             y="720.83704"
             style="font-size:128px">multi-correlator</tspan></text>
      </g>
    </g>
  </g>
</svg>
